<svg width="1280" height="820" viewBox="0 0 1280 820" fill="none" xmlns="http://www.w3.org/2000/svg">
  <defs>
    <linearGradient id="bg" x1="640" y1="0" x2="640" y2="820" gradientUnits="userSpaceOnUse">
      <stop stop-color="#090909"/><stop offset="1" stop-color="#0C0C0C"/>
    </linearGradient>
    <radialGradient id="heroGlow" cx="50%" cy="0%" r="70%">
      <stop stop-color="#FFD400" stop-opacity="0.12"/><stop offset="1" stop-opacity="0"/>
    </radialGradient>
    <filter id="shadow" x="-20%" y="-20%" width="140%" height="140%">
      <feDropShadow dx="0" dy="20" stdDeviation="30" flood-color="#FFD400" flood-opacity="0.08"/>
    </filter>
  </defs>
  <rect width="1280" height="820" rx="24" fill="url(#bg)"/>
  <rect width="1280" height="400" fill="url(#heroGlow)"/>
  <!-- Grid pattern -->
  <g opacity="0.04" stroke="#FFD400" stroke-width="0.5">
    <line x1="0" y1="80" x2="1280" y2="80"/><line x1="0" y1="160" x2="1280" y2="160"/>
    <line x1="0" y1="240" x2="1280" y2="240"/><line x1="0" y1="320" x2="1280" y2="320"/>
    <line x1="160" y1="0" x2="160" y2="400"/><line x1="320" y1="0" x2="320" y2="400"/>
    <line x1="480" y1="0" x2="480" y2="400"/><line x1="640" y1="0" x2="640" y2="400"/>
  </g>
  <!-- Nav -->
  <rect x="56" y="36" width="1168" height="60" rx="14" fill="#121212" stroke="rgba(255,255,255,0.08)" stroke-width="1"/>
  <rect x="80" y="54" width="32" height="24" rx="8" fill="#FFD400"/>
  <rect x="120" y="56" width="100" height="18" rx="4" fill="#FFFFFF"/>
  <rect x="560" y="58" width="64" height="14" rx="4" fill="rgba(255,255,255,0.4)"/>
  <rect x="640" y="58" width="64" height="14" rx="4" fill="rgba(255,255,255,0.4)"/>
  <rect x="720" y="58" width="64" height="14" rx="4" fill="rgba(255,255,255,0.4)"/>
  <rect x="800" y="58" width="64" height="14" rx="4" fill="rgba(255,255,255,0.4)"/>
  <rect x="1080" y="48" width="120" height="36" rx="18" fill="#FFD400"/>
  <!-- Hero left -->
  <rect x="56" y="128" width="580" height="340" rx="20" fill="#121212" stroke="rgba(255,255,255,0.08)" stroke-width="1" filter="url(#shadow)"/>
  <rect x="88" y="168" width="80" height="28" rx="14" fill="rgba(255,212,0,0.12)" stroke="rgba(255,212,0,0.3)" stroke-width="1"/>
  <rect x="100" y="178" width="56" height="8" rx="3" fill="#FFD400"/>
  <rect x="88" y="220" width="480" height="44" rx="8" fill="#FFFFFF"/>
  <rect x="88" y="280" width="420" height="16" rx="5" fill="rgba(255,255,255,0.5)"/>
  <rect x="88" y="306" width="380" height="16" rx="5" fill="rgba(255,255,255,0.35)"/>
  <rect x="88" y="360" width="180" height="52" rx="26" fill="#FFD400"/>
  <rect x="288" y="360" width="180" height="52" rx="26" fill="transparent" stroke="rgba(255,255,255,0.2)" stroke-width="1.5"/>
  <!-- Stats -->
  <rect x="88" y="440" width="120" height="16" rx="5" fill="#FFD400"/>
  <rect x="88" y="462" width="80" height="10" rx="4" fill="rgba(255,255,255,0.4)"/>
  <rect x="240" y="440" width="120" height="16" rx="5" fill="#FFD400"/>
  <rect x="240" y="462" width="80" height="10" rx="4" fill="rgba(255,255,255,0.4)"/>
  <!-- Hero right - dashboard preview -->
  <rect x="664" y="128" width="560" height="340" rx="20" fill="#121212" stroke="rgba(255,255,255,0.08)" stroke-width="1" filter="url(#shadow)"/>
  <circle cx="696" cy="160" r="6" fill="#FF5F56"/><circle cx="716" cy="160" r="6" fill="#FFBD2E"/><circle cx="736" cy="160" r="6" fill="#27C93F"/>
  <rect x="760" y="154" width="200" height="12" rx="6" fill="rgba(255,255,255,0.08)"/>
  <rect x="688" y="188" width="512" height="260" rx="12" fill="#0A0A0A"/>
  <rect x="708" y="208" width="200" height="12" rx="4" fill="rgba(255,212,0,0.4)"/>
  <rect x="708" y="232" width="280" height="8" rx="3" fill="rgba(255,255,255,0.15)"/>
  <rect x="708" y="260" width="472" height="120" rx="10" fill="rgba(255,212,0,0.08)" stroke="rgba(255,212,0,0.2)" stroke-width="1"/>
  <rect x="728" y="400" width="140" height="36" rx="8" fill="#1A1A1A"/>
  <rect x="884" y="400" width="140" height="36" rx="8" fill="#1A1A1A"/>
  <rect x="1040" y="400" width="140" height="36" rx="8" fill="rgba(255,212,0,0.15)"/>
  <!-- Services row -->
  <rect x="56" y="496" width="272" height="280" rx="18" fill="#121212" stroke="rgba(255,255,255,0.08)" stroke-width="1"/>
  <rect x="80" y="520" width="48" height="48" rx="24" fill="rgba(255,212,0,0.12)"/>
  <rect x="80" y="588" width="160" height="16" rx="5" fill="#FFFFFF"/>
  <rect x="80" y="612" width="200" height="10" rx="4" fill="rgba(255,255,255,0.4)"/>
  <rect x="80" y="630" width="180" height="10" rx="4" fill="rgba(255,255,255,0.3)"/>
  <rect x="352" y="496" width="272" height="280" rx="18" fill="#121212" stroke="rgba(255,255,255,0.08)" stroke-width="1"/>
  <rect x="376" y="520" width="48" height="48" rx="24" fill="rgba(255,212,0,0.12)"/>
  <rect x="376" y="588" width="160" height="16" rx="5" fill="#FFFFFF"/>
  <rect x="376" y="612" width="200" height="10" rx="4" fill="rgba(255,255,255,0.4)"/>
  <rect x="648" y="496" width="272" height="280" rx="18" fill="#121212" stroke="rgba(255,212,0,0.25)" stroke-width="1.5"/>
  <rect x="672" y="520" width="48" height="48" rx="24" fill="rgba(255,212,0,0.2)"/>
  <rect x="672" y="588" width="160" height="16" rx="5" fill="#FFFFFF"/>
  <rect x="672" y="612" width="200" height="10" rx="4" fill="rgba(255,255,255,0.4)"/>
  <rect x="944" y="496" width="280" height="280" rx="18" fill="#121212" stroke="rgba(255,255,255,0.08)" stroke-width="1"/>
  <rect x="968" y="520" width="48" height="48" rx="24" fill="rgba(255,212,0,0.12)"/>
  <rect x="968" y="588" width="160" height="16" rx="5" fill="#FFFFFF"/>
  <rect x="968" y="612" width="200" height="10" rx="4" fill="rgba(255,255,255,0.4)"/>
</svg>
