<svg width="1280" height="820" viewBox="0 0 1280 820" fill="none" xmlns="http://www.w3.org/2000/svg">
<rect width="1280" height="820" rx="26" fill="#0F1217"/>
<rect x="40" y="38" width="1200" height="80" rx="16" fill="#1A212C"/>
<rect x="72" y="66" width="170" height="24" rx="12" fill="#63D5C4"/>
<rect x="840" y="66" width="96" height="24" rx="12" fill="#2D3A4B"/>
<rect x="952" y="66" width="96" height="24" rx="12" fill="#2D3A4B"/>
<rect x="1064" y="58" width="142" height="38" rx="19" fill="#63D5C4"/>
<rect x="40" y="138" width="1200" height="644" rx="22" fill="#121821"/>
<rect x="78" y="176" width="1124" height="230" rx="20" fill="url(#paint0_linear)"/>
<rect x="128" y="236" width="420" height="24" rx="12" fill="#F6FBFF"/>
<rect x="128" y="274" width="520" height="14" rx="7" fill="#CBD8EA"/>
<rect x="128" y="300" width="464" height="14" rx="7" fill="#A5B5CC"/>
<rect x="128" y="336" width="176" height="46" rx="23" fill="#63D5C4"/>
<rect x="808" y="210" width="344" height="164" rx="16" fill="#0D131B"/>
<rect x="846" y="250" width="268" height="12" rx="6" fill="#63D5C4"/>
<rect x="846" y="276" width="214" height="12" rx="6" fill="#5D718A"/>
<rect x="78" y="428" width="540" height="314" rx="18" fill="#1A212C"/>
<rect x="112" y="466" width="164" height="16" rx="8" fill="#63D5C4"/>
<rect x="112" y="498" width="468" height="12" rx="6" fill="#8597AF"/>
<rect x="112" y="520" width="432" height="12" rx="6" fill="#6E819B"/>
<rect x="112" y="552" width="506" height="148" rx="14" fill="#121821"/>
<rect x="648" y="428" width="554" height="314" rx="18" fill="#1A212C"/>
<rect x="684" y="470" width="138" height="194" rx="14" fill="#121821"/>
<rect x="856" y="470" width="138" height="194" rx="14" fill="#121821"/>
<rect x="1028" y="470" width="138" height="194" rx="14" fill="#121821"/>
<rect x="708" y="690" width="152" height="16" rx="8" fill="#63D5C4"/>
<defs>
<linearGradient id="paint0_linear" x1="78" y1="176" x2="1202" y2="406" gradientUnits="userSpaceOnUse">
<stop stop-color="#203747"/>
<stop offset="1" stop-color="#151D2B"/>
</linearGradient>
</defs>
</svg>
