<svg width="1280" height="820" viewBox="0 0 1280 820" fill="none" xmlns="http://www.w3.org/2000/svg">
  <defs>
    <linearGradient id="bg" x1="0" y1="0" x2="1280" y2="820" gradientUnits="userSpaceOnUse">
      <stop stop-color="#1A120C"/><stop offset="1" stop-color="#0F0A07"/>
    </linearGradient>
    <linearGradient id="hero" x1="80" y1="140" x2="900" y2="500" gradientUnits="userSpaceOnUse">
      <stop stop-color="#5C3D2E"/><stop offset="0.5" stop-color="#3D2618"/><stop offset="1" stop-color="#1F140E"/>
    </linearGradient>
    <linearGradient id="gold" x1="0" y1="0" x2="1" y2="1">
      <stop stop-color="#D4A574"/><stop offset="1" stop-color="#B8834E"/>
    </linearGradient>
    <filter id="shadow" x="-20%" y="-20%" width="140%" height="140%">
      <feDropShadow dx="0" dy="12" stdDeviation="20" flood-color="#000" flood-opacity="0.45"/>
    </filter>
  </defs>
  <rect width="1280" height="820" rx="24" fill="url(#bg)"/>
  <!-- Nav -->
  <rect x="48" y="32" width="1184" height="64" rx="16" fill="#221810" fill-opacity="0.9"/>
  <circle cx="88" cy="64" r="16" fill="url(#gold)"/>
  <rect x="112" y="54" width="100" height="20" rx="6" fill="#E8D5C0"/>
  <rect x="720" y="54" width="72" height="20" rx="6" fill="#6B5344"/>
  <rect x="808" y="54" width="72" height="20" rx="6" fill="#6B5344"/>
  <rect x="896" y="54" width="72" height="20" rx="6" fill="#6B5344"/>
  <rect x="1000" y="46" width="120" height="36" rx="18" fill="url(#gold)"/>
  <!-- Hero -->
  <rect x="48" y="116" width="1184" height="320" rx="20" fill="url(#hero)" filter="url(#shadow)"/>
  <ellipse cx="980" cy="280" rx="180" ry="140" fill="#8B5E3C" fill-opacity="0.35"/>
  <ellipse cx="920" cy="240" rx="100" ry="80" fill="#D4A574" fill-opacity="0.2"/>
  <rect x="96" y="180" width="420" height="36" rx="8" fill="#F5EDE4"/>
  <rect x="96" y="232" width="380" height="16" rx="6" fill="#C4A88A"/>
  <rect x="96" y="258" width="340" height="16" rx="6" fill="#9A7B62"/>
  <rect x="96" y="310" width="160" height="48" rx="24" fill="url(#gold)"/>
  <rect x="276" y="310" width="160" height="48" rx="24" fill="#3D2618" stroke="#6B5344" stroke-width="1.5"/>
  <!-- Stats -->
  <rect x="96" y="380" width="100" height="36" rx="8" fill="#2A1C14"/>
  <rect x="108" y="390" width="60" height="10" rx="4" fill="#D4A574"/>
  <rect x="108" y="404" width="40" height="6" rx="3" fill="#6B5344"/>
  <rect x="220" y="380" width="100" height="36" rx="8" fill="#2A1C14"/>
  <rect x="232" y="390" width="60" height="10" rx="4" fill="#D4A574"/>
  <rect x="232" y="404" width="40" height="6" rx="3" fill="#6B5344"/>
  <!-- Products -->
  <rect x="48" y="460" width="280" height="320" rx="18" fill="#1F140E" filter="url(#shadow)"/>
  <rect x="72" y="484" width="232" height="160" rx="12" fill="#3D2618"/>
  <rect x="72" y="484" width="232" height="160" rx="12" fill="url(#gold)" fill-opacity="0.15"/>
  <rect x="88" y="660" width="140" height="14" rx="5" fill="#E8D5C0"/>
  <rect x="88" y="682" width="80" height="12" rx="4" fill="#D4A574"/>
  <rect x="88" y="702" width="60" height="28" rx="14" fill="url(#gold)"/>
  <rect x="352" y="460" width="280" height="320" rx="18" fill="#1F140E" filter="url(#shadow)"/>
  <rect x="376" y="484" width="232" height="160" rx="12" fill="#2E1F15"/>
  <rect x="392" y="660" width="140" height="14" rx="5" fill="#E8D5C0"/>
  <rect x="392" y="682" width="80" height="12" rx="4" fill="#D4A574"/>
  <rect x="392" y="702" width="60" height="28" rx="14" fill="url(#gold)"/>
  <rect x="656" y="460" width="280" height="320" rx="18" fill="#1F140E" filter="url(#shadow)"/>
  <rect x="680" y="484" width="232" height="160" rx="12" fill="#4A3020"/>
  <rect x="696" y="660" width="140" height="14" rx="5" fill="#E8D5C0"/>
  <rect x="696" y="682" width="80" height="12" rx="4" fill="#D4A574"/>
  <rect x="696" y="702" width="60" height="28" rx="14" fill="url(#gold)"/>
  <rect x="960" y="460" width="272" height="320" rx="18" fill="#1F140E" filter="url(#shadow)"/>
  <rect x="984" y="484" width="224" height="160" rx="12" fill="#352418"/>
  <rect x="1000" y="660" width="140" height="14" rx="5" fill="#E8D5C0"/>
  <rect x="1000" y="682" width="80" height="12" rx="4" fill="#D4A574"/>
  <rect x="1000" y="702" width="60" height="28" rx="14" fill="url(#gold)"/>
</svg>
