<svg width="1280" height="820" viewBox="0 0 1280 820" fill="none" xmlns="http://www.w3.org/2000/svg">
<rect width="1280" height="820" rx="26" fill="#0C1016"/>
<rect x="38" y="36" width="1204" height="74" rx="15" fill="#131A26"/>
<rect x="74" y="61" width="176" height="24" rx="12" fill="#62A5FF"/>
<rect x="938" y="61" width="82" height="24" rx="12" fill="#253248"/>
<rect x="1034" y="61" width="82" height="24" rx="12" fill="#253248"/>
<rect x="1130" y="54" width="84" height="38" rx="19" fill="#62A5FF"/>
<rect x="38" y="130" width="1204" height="652" rx="22" fill="#101725"/>
<rect x="74" y="170" width="244" height="572" rx="18" fill="#171F2E"/>
<rect x="106" y="212" width="180" height="16" rx="8" fill="#62A5FF"/>
<rect x="106" y="248" width="180" height="12" rx="6" fill="#6D85AB"/>
<rect x="106" y="272" width="180" height="12" rx="6" fill="#6D85AB"/>
<rect x="106" y="296" width="180" height="12" rx="6" fill="#6D85AB"/>
<rect x="342" y="170" width="864" height="170" rx="18" fill="#171F2E"/>
<rect x="374" y="206" width="232" height="100" rx="14" fill="#0F1622"/>
<rect x="630" y="206" width="232" height="100" rx="14" fill="#0F1622"/>
<rect x="886" y="206" width="288" height="100" rx="14" fill="#0F1622"/>
<rect x="342" y="360" width="552" height="382" rx="18" fill="#171F2E"/>
<rect x="376" y="398" width="484" height="300" rx="14" fill="#0F1622"/>
<path d="M410 640L470 566L548 594L628 514L714 560L820 468" stroke="#62A5FF" stroke-width="10" stroke-linecap="round"/>
<rect x="918" y="360" width="288" height="382" rx="18" fill="#171F2E"/>
<rect x="950" y="400" width="224" height="52" rx="12" fill="#0F1622"/>
<rect x="950" y="468" width="224" height="52" rx="12" fill="#0F1622"/>
<rect x="950" y="536" width="224" height="52" rx="12" fill="#0F1622"/>
<rect x="950" y="604" width="224" height="52" rx="12" fill="#0F1622"/>
</svg>
