<svg width="1280" height="820" viewBox="0 0 1280 820" fill="none" xmlns="http://www.w3.org/2000/svg">
  <defs>
    <linearGradient id="bg" x1="0" y1="0" x2="1280" y2="820" gradientUnits="userSpaceOnUse">
      <stop stop-color="#0A1628"/><stop offset="1" stop-color="#061018"/>
    </linearGradient>
    <linearGradient id="ocean" x1="0" y1="0" x2="1" y2="1">
      <stop stop-color="#0EA5E9"/><stop offset="1" stop-color="#0284C7"/>
    </linearGradient>
    <linearGradient id="hero" x1="0" y1="0" x2="0" y2="1">
      <stop stop-color="#0C4A6E"/><stop offset="1" stop-color="#082F49"/>
    </linearGradient>
    <filter id="shadow" x="-15%" y="-15%" width="130%" height="130%">
      <feDropShadow dx="0" dy="16" stdDeviation="24" flood-color="#0EA5E9" flood-opacity="0.15"/>
    </filter>
  </defs>
  <rect width="1280" height="820" rx="24" fill="url(#bg)"/>
  <!-- Nav -->
  <rect x="48" y="28" width="1184" height="64" rx="14" fill="#0F2038" fill-opacity="0.95"/>
  <circle cx="88" cy="60" r="18" fill="url(#ocean)"/>
  <rect x="116" y="50" width="100" height="18" rx="5" fill="#E0F2FE"/>
  <rect x="640" y="54" width="64" height="12" rx="4" fill="#3B6B8C"/>
  <rect x="720" y="54" width="64" height="12" rx="4" fill="#3B6B8C"/>
  <rect x="800" y="54" width="64" height="12" rx="4" fill="#3B6B8C"/>
  <rect x="1080" y="44" width="120" height="32" rx="16" fill="url(#ocean)"/>
  <!-- Hero -->
  <rect x="48" y="112" width="1184" height="240" rx="20" fill="url(#hero)" filter="url(#shadow)"/>
  <rect x="96" y="160" width="400" height="32" rx="6" fill="#F0F9FF"/>
  <rect x="96" y="208" width="340" height="14" rx="5" fill="#7DD3FC"/>
  <rect x="96" y="232" width="300" height="14" rx="5" fill="#38BDF8" fill-opacity="0.6"/>
  <rect x="96" y="280" width="160" height="44" rx="22" fill="url(#ocean)"/>
  <!-- Destination cards in hero -->
  <rect x="600" y="150" width="200" height="160" rx="14" fill="#0F2840"/>
  <rect x="616" y="166" width="168" height="100" rx="10" fill="#1E5A7A"/>
  <rect x="616" y="278" width="100" height="12" rx="4" fill="#E0F2FE"/>
  <rect x="820" y="150" width="200" height="160" rx="14" fill="#0F2840"/>
  <rect x="836" y="166" width="168" height="100" rx="10" fill="#164E63"/>
  <rect x="836" y="278" width="100" height="12" rx="4" fill="#E0F2FE"/>
  <rect x="1040" y="150" width="160" height="160" rx="14" fill="#0F2840"/>
  <rect x="1056" y="166" width="128" height="100" rx="10" fill="#0C4A6E"/>
  <!-- Dashboard layout -->
  <rect x="48" y="376" width="320" height="400" rx="18" fill="#0F2038" filter="url(#shadow)"/>
  <rect x="72" y="400" width="120" height="14" rx="4" fill="#7DD3FC"/>
  <!-- Calendar -->
  <rect x="72" y="432" width="272" height="200" rx="12" fill="#0A1628"/>
  <rect x="88" y="448" width="240" height="24" rx="6" fill="#164E63"/>
  <g fill="#1E5A7A">
    <rect x="88" y="488" width="32" height="28" rx="6"/><rect x="128" y="488" width="32" height="28" rx="6"/>
    <rect x="168" y="488" width="32" height="28" rx="6"/><rect x="208" y="488" width="32" height="28" rx="6"/>
    <rect x="248" y="488" width="32" height="28" rx="6"/><rect x="288" y="488" width="32" height="28" rx="6"/>
    <rect x="88" y="524" width="32" height="28" rx="6"/><rect x="128" y="524" width="32" height="28" rx="6" fill="#0EA5E9"/>
    <rect x="168" y="524" width="32" height="28" rx="6"/><rect x="208" y="524" width="32" height="28" rx="6"/>
    <rect x="248" y="524" width="32" height="28" rx="6"/><rect x="288" y="524" width="32" height="28" rx="6"/>
  </g>
  <rect x="72" y="652" width="272" height="100" rx="12" fill="#0A1628"/>
  <rect x="88" y="672" width="120" height="12" rx="4" fill="#E0F2FE"/>
  <rect x="88" y="692" width="80" height="10" rx="4" fill="#38BDF8"/>
  <rect x="88" y="716" width="100" height="28" rx="14" fill="url(#ocean)"/>
  <!-- Main content -->
  <rect x="392" y="376" width="840" height="400" rx="18" fill="#0F2038" filter="url(#shadow)"/>
  <rect x="416" y="400" width="160" height="14" rx="4" fill="#7DD3FC"/>
  <rect x="416" y="432" width="360" height="48" rx="24" fill="#0A1628" stroke="#1E5A7A" stroke-width="1"/>
  <rect x="440" y="448" width="120" height="16" rx="5" fill="#3B6B8C"/>
  <rect x="792" y="440" width="120" height="32" rx="16" fill="url(#ocean)"/>
  <!-- Tour cards -->
  <rect x="416" y="504" width="248" height="240" rx="14" fill="#0A1628"/>
  <rect x="432" y="520" width="216" height="120" rx="10" fill="#164E63"/>
  <rect x="432" y="652" width="140" height="14" rx="5" fill="#E0F2FE"/>
  <rect x="432" y="674" width="80" height="12" rx="4" fill="#38BDF8"/>
  <rect x="432" y="696" width="80" height="28" rx="14" fill="url(#ocean)"/>
  <rect x="688" y="504" width="248" height="240" rx="14" fill="#0A1628"/>
  <rect x="704" y="520" width="216" height="120" rx="10" fill="#1E5A7A"/>
  <rect x="704" y="652" width="140" height="14" rx="5" fill="#E0F2FE"/>
  <rect x="704" y="674" width="80" height="12" rx="4" fill="#38BDF8"/>
  <rect x="960" y="504" width="248" height="240" rx="14" fill="#0A1628"/>
  <rect x="976" y="520" width="216" height="120" rx="10" fill="#0C4A6E"/>
  <rect x="976" y="652" width="140" height="14" rx="5" fill="#E0F2FE"/>
  <rect x="976" y="674" width="80" height="12" rx="4" fill="#38BDF8"/>
</svg>
