<svg width="1280" height="820" viewBox="0 0 1280 820" fill="none" xmlns="http://www.w3.org/2000/svg">
<rect width="1280" height="820" rx="26" fill="#121015"/>
<rect x="38" y="36" width="1204" height="74" rx="15" fill="#211C2A"/>
<rect x="74" y="61" width="176" height="24" rx="12" fill="#FF7A59"/>
<rect x="902" y="61" width="98" height="24" rx="12" fill="#332C40"/>
<rect x="1018" y="61" width="98" height="24" rx="12" fill="#332C40"/>
<rect x="1134" y="52" width="80" height="40" rx="20" fill="#FF7A59"/>
<rect x="38" y="130" width="1204" height="652" rx="22" fill="#17131F"/>
<rect x="74" y="170" width="290" height="572" rx="18" fill="#221C2B"/>
<rect x="108" y="210" width="220" height="14" rx="7" fill="#A496B7"/>
<rect x="108" y="240" width="184" height="38" rx="10" fill="#30293D"/>
<rect x="108" y="294" width="184" height="38" rx="10" fill="#30293D"/>
<rect x="108" y="348" width="184" height="38" rx="10" fill="#30293D"/>
<rect x="400" y="170" width="806" height="180" rx="18" fill="url(#paint0_linear)"/>
<rect x="446" y="226" width="324" height="24" rx="12" fill="#F9F5FF"/>
<rect x="446" y="262" width="268" height="12" rx="6" fill="#D7CCE7"/>
<rect x="446" y="294" width="150" height="40" rx="20" fill="#FF7A59"/>
<rect x="400" y="370" width="806" height="372" rx="18" fill="#221C2B"/>
<rect x="436" y="410" width="228" height="150" rx="14" fill="#17131F"/>
<rect x="436" y="574" width="228" height="130" rx="14" fill="#17131F"/>
<rect x="688" y="410" width="228" height="150" rx="14" fill="#17131F"/>
<rect x="688" y="574" width="228" height="130" rx="14" fill="#17131F"/>
<rect x="940" y="410" width="228" height="150" rx="14" fill="#17131F"/>
<rect x="940" y="574" width="228" height="130" rx="14" fill="#17131F"/>
<rect x="462" y="524" width="132" height="12" rx="6" fill="#FF7A59"/>
<rect x="714" y="524" width="132" height="12" rx="6" fill="#FF7A59"/>
<rect x="966" y="524" width="132" height="12" rx="6" fill="#FF7A59"/>
<defs>
<linearGradient id="paint0_linear" x1="400" y1="170" x2="1206" y2="350" gradientUnits="userSpaceOnUse">
<stop stop-color="#3D294E"/>
<stop offset="1" stop-color="#2D213B"/>
</linearGradient>
</defs>
</svg>
