<svg width="1280" height="820" viewBox="0 0 1280 820" fill="none" xmlns="http://www.w3.org/2000/svg">
<rect width="1280" height="820" rx="26" fill="#0C1320"/>
<rect x="38" y="36" width="1204" height="74" rx="15" fill="#162337"/>
<rect x="74" y="61" width="168" height="24" rx="12" fill="#47F2C8"/>
<rect x="948" y="61" width="76" height="24" rx="12" fill="#29405B"/>
<rect x="1038" y="61" width="76" height="24" rx="12" fill="#29405B"/>
<rect x="1128" y="54" width="86" height="38" rx="19" fill="#47F2C8"/>
<rect x="38" y="130" width="1204" height="652" rx="22" fill="#0F1A2D"/>
<rect x="74" y="170" width="276" height="572" rx="18" fill="#15243A"/>
<rect x="108" y="212" width="208" height="14" rx="7" fill="#47F2C8"/>
<rect x="108" y="244" width="208" height="12" rx="6" fill="#6D8AA8"/>
<rect x="108" y="268" width="208" height="12" rx="6" fill="#6D8AA8"/>
<rect x="108" y="292" width="208" height="12" rx="6" fill="#6D8AA8"/>
<rect x="374" y="170" width="832" height="230" rx="18" fill="#15243A"/>
<rect x="410" y="212" width="254" height="150" rx="14" fill="#0E1726"/>
<rect x="690" y="212" width="480" height="150" rx="14" fill="#0E1726"/>
<rect x="730" y="252" width="400" height="12" rx="6" fill="#47F2C8"/>
<rect x="730" y="276" width="332" height="12" rx="6" fill="#5B7F9E"/>
<rect x="374" y="422" width="832" height="320" rx="18" fill="#15243A"/>
<rect x="410" y="458" width="240" height="250" rx="14" fill="#0E1726"/>
<rect x="676" y="458" width="240" height="250" rx="14" fill="#0E1726"/>
<rect x="942" y="458" width="228" height="114" rx="14" fill="#0E1726"/>
<rect x="942" y="594" width="228" height="114" rx="14" fill="#0E1726"/>
</svg>
