<svg width="1280" height="820" viewBox="0 0 1280 820" fill="none" xmlns="http://www.w3.org/2000/svg">
  <defs>
    <linearGradient id="bg" x1="0" y1="0" x2="1280" y2="820" gradientUnits="userSpaceOnUse">
      <stop stop-color="#F7F5F2"/><stop offset="1" stop-color="#EDE9E3"/>
    </linearGradient>
    <linearGradient id="sage" x1="0" y1="0" x2="1" y2="1">
      <stop stop-color="#8B9A7D"/><stop offset="1" stop-color="#6B7A5E"/>
    </linearGradient>
    <filter id="shadow" x="-10%" y="-10%" width="120%" height="120%">
      <feDropShadow dx="0" dy="12" stdDeviation="20" flood-color="#000" flood-opacity="0.1"/>
    </filter>
  </defs>
  <rect width="1280" height="820" rx="24" fill="url(#bg)"/>
  <!-- Nav -->
  <rect x="0" y="0" width="1280" height="80" fill="#FFFFFF" fill-opacity="0.9"/>
  <line x1="56" y1="80" x2="1224" y2="80" stroke="#E0DCD6" stroke-width="1"/>
  <rect x="56" y="32" width="140" height="16" rx="4" fill="#2C2C2C"/>
  <rect x="520" y="34" width="56" height="12" rx="4" fill="#9A958D"/>
  <rect x="592" y="34" width="56" height="12" rx="4" fill="#9A958D"/>
  <rect x="664" y="34" width="56" height="12" rx="4" fill="#9A958D"/>
  <rect x="736" y="34" width="56" height="12" rx="4" fill="#9A958D"/>
  <rect x="1100" y="28" width="124" height="36" rx="18" fill="url(#sage)"/>
  <!-- Hero split -->
  <rect x="56" y="112" width="560" height="360" rx="20" fill="#FFFFFF" filter="url(#shadow)"/>
  <rect x="88" y="148" width="60" height="24" rx="12" fill="rgba(139,154,125,0.2)"/>
  <rect x="88" y="192" width="400" height="36" rx="6" fill="#2C2C2C"/>
  <rect x="88" y="244" width="360" height="14" rx="5" fill="#9A958D"/>
  <rect x="88" y="268" width="320" height="14" rx="5" fill="#B8B3AB"/>
  <rect x="88" y="320" width="160" height="48" rx="24" fill="url(#sage)"/>
  <rect x="264" y="320" width="160" height="48" rx="24" fill="transparent" stroke="#D0CCC4" stroke-width="1.5"/>
  <!-- Gallery grid right -->
  <rect x="648" y="112" width="576" height="360" rx="20" fill="#FFFFFF" filter="url(#shadow)"/>
  <rect x="672" y="136" width="260" height="200" rx="12" fill="#D4CFC6"/>
  <rect x="948" y="136" width="252" height="96" rx="12" fill="#C8C2B8"/>
  <rect x="948" y="248" width="252" height="88" rx="12" fill="#B8B0A4"/>
  <rect x="672" y="352" width="168" height="96" rx="12" fill="#C0BAB0"/>
  <rect x="856" y="352" width="168" height="96" rx="12" fill="#D0CAC0"/>
  <rect x="1040" y="352" width="160" height="96" rx="12" fill="#A8A298"/>
  <!-- Projects section -->
  <rect x="56" y="500" width="380" height="280" rx="18" fill="#FFFFFF" filter="url(#shadow)"/>
  <rect x="80" y="524" width="332" height="180" rx="12" fill="#E8E4DE"/>
  <rect x="80" y="720" width="180" height="14" rx="5" fill="#2C2C2C"/>
  <rect x="80" y="742" width="120" height="10" rx="4" fill="#9A958D"/>
  <rect x="460" y="500" width="380" height="280" rx="18" fill="#FFFFFF" filter="url(#shadow)"/>
  <rect x="484" y="524" width="332" height="180" rx="12" fill="#D8D4CC"/>
  <rect x="484" y="720" width="180" height="14" rx="5" fill="#2C2C2C"/>
  <rect x="484" y="742" width="120" height="10" rx="4" fill="#9A958D"/>
  <rect x="864" y="500" width="360" height="280" rx="18" fill="#FFFFFF" filter="url(#shadow)"/>
  <rect x="888" y="524" width="312" height="180" rx="12" fill="#C8C4BC"/>
  <rect x="888" y="720" width="180" height="14" rx="5" fill="#2C2C2C"/>
  <rect x="888" y="742" width="120" height="10" rx="4" fill="#9A958D"/>
  <!-- Floating UI card -->
  <rect x="1000" y="160" width="200" height="120" rx="14" fill="#FFFFFF" filter="url(#shadow)"/>
  <rect x="1020" y="180" width="80" height="10" rx="4" fill="url(#sage)"/>
  <rect x="1020" y="200" width="120" height="8" rx="3" fill="#D0CCC4"/>
  <rect x="1020" y="220" width="100" height="8" rx="3" fill="#E0DCD6"/>
  <rect x="1020" y="248" width="80" height="24" rx="12" fill="url(#sage)"/>
</svg>
