<svg width="1280" height="820" viewBox="0 0 1280 820" fill="none" xmlns="http://www.w3.org/2000/svg">
<rect width="1280" height="820" rx="26" fill="#10111A"/>
<rect x="38" y="36" width="1204" height="74" rx="15" fill="#1C1D2D"/>
<rect x="74" y="61" width="164" height="24" rx="12" fill="#A78BFA"/>
<rect x="956" y="61" width="74" height="24" rx="12" fill="#393A55"/>
<rect x="1044" y="61" width="74" height="24" rx="12" fill="#393A55"/>
<rect x="1132" y="54" width="82" height="38" rx="19" fill="#A78BFA"/>
<rect x="38" y="130" width="1204" height="652" rx="22" fill="#15172A"/>
<rect x="74" y="170" width="1132" height="170" rx="18" fill="url(#paint0_linear)"/>
<rect x="116" y="222" width="376" height="24" rx="12" fill="#F3F1FF"/>
<rect x="116" y="260" width="328" height="14" rx="7" fill="#CAC2E7"/>
<rect x="116" y="286" width="280" height="14" rx="7" fill="#A79BCF"/>
<rect x="962" y="210" width="206" height="92" rx="14" fill="#191B2F"/>
<rect x="74" y="360" width="744" height="382" rx="18" fill="#20233A"/>
<rect x="108" y="398" width="676" height="310" rx="14" fill="#15172A"/>
<rect x="140" y="430" width="260" height="12" rx="6" fill="#A78BFA"/>
<rect x="140" y="454" width="620" height="12" rx="6" fill="#68709F"/>
<rect x="140" y="486" width="196" height="188" rx="14" fill="#1E2138"/>
<rect x="356" y="486" width="196" height="188" rx="14" fill="#1E2138"/>
<rect x="572" y="486" width="188" height="188" rx="14" fill="#1E2138"/>
<rect x="842" y="360" width="364" height="382" rx="18" fill="#20233A"/>
<rect x="876" y="398" width="296" height="120" rx="14" fill="#15172A"/>
<rect x="876" y="534" width="296" height="174" rx="14" fill="#15172A"/>
<defs>
<linearGradient id="paint0_linear" x1="74" y1="170" x2="1206" y2="340" gradientUnits="userSpaceOnUse">
<stop stop-color="#44386A"/>
<stop offset="1" stop-color="#2B2D4F"/>
</linearGradient>
</defs>
</svg>
