<svg width="1280" height="820" viewBox="0 0 1280 820" fill="none" xmlns="http://www.w3.org/2000/svg">
  <defs>
    <linearGradient id="bg" x1="0" y1="0" x2="1280" y2="820" gradientUnits="userSpaceOnUse">
      <stop stop-color="#0C1424"/><stop offset="1" stop-color="#060A12"/>
    </linearGradient>
    <linearGradient id="gold" x1="0" y1="0" x2="1" y2="0">
      <stop stop-color="#C9A962"/><stop offset="1" stop-color="#E8D5A0"/>
    </linearGradient>
    <linearGradient id="hero" x1="0" y1="0" x2="0" y2="1">
      <stop stop-color="#142238"/><stop offset="1" stop-color="#0A1520"/>
    </linearGradient>
    <filter id="shadow" x="-15%" y="-15%" width="130%" height="130%">
      <feDropShadow dx="0" dy="16" stdDeviation="24" flood-color="#000" flood-opacity="0.5"/>
    </filter>
  </defs>
  <rect width="1280" height="820" rx="24" fill="url(#bg)"/>
  <!-- Nav -->
  <rect x="48" y="28" width="1184" height="68" rx="14" fill="#101C2E" fill-opacity="0.95"/>
  <rect x="80" y="50" width="28" height="24" rx="4" fill="url(#gold)"/>
  <rect x="116" y="52" width="120" height="18" rx="5" fill="#E8EEF5"/>
  <rect x="680" y="54" width="72" height="14" rx="4" fill="#4A6080"/>
  <rect x="768" y="54" width="72" height="14" rx="4" fill="#4A6080"/>
  <rect x="856" y="54" width="72" height="14" rx="4" fill="#4A6080"/>
  <rect x="944" y="54" width="72" height="14" rx="4" fill="#4A6080"/>
  <rect x="1056" y="44" width="140" height="36" rx="18" fill="url(#gold)"/>
  <!-- Hero -->
  <rect x="48" y="116" width="1184" height="280" rx="20" fill="url(#hero)" filter="url(#shadow)"/>
  <rect x="96" y="180" width="480" height="40" rx="8" fill="#F0F4FA"/>
  <rect x="96" y="236" width="400" height="16" rx="5" fill="#6B8299"/>
  <rect x="96" y="262" width="360" height="16" rx="5" fill="#4A6080"/>
  <!-- Search bar -->
  <rect x="96" y="310" width="520" height="52" rx="26" fill="#0A1520" stroke="#2A4060" stroke-width="1.5"/>
  <rect x="120" y="328" width="120" height="16" rx="5" fill="#4A6080"/>
  <rect x="480" y="322" width="100" height="28" rx="14" fill="url(#gold)"/>
  <!-- City skyline abstract -->
  <rect x="720" y="160" width="480" height="200" rx="12" fill="#0A1520" fill-opacity="0.6"/>
  <rect x="760" y="280" width="40" height="60" rx="4" fill="#1A3050"/>
  <rect x="820" y="240" width="50" height="100" rx="4" fill="#243D5C"/>
  <rect x="890" y="200" width="60" height="140" rx="4" fill="url(#gold)" fill-opacity="0.3"/>
  <rect x="970" y="260" width="45" height="80" rx="4" fill="#1A3050"/>
  <rect x="1040" y="220" width="55" height="120" rx="4" fill="#243D5C"/>
  <rect x="1110" y="270" width="50" height="70" rx="4" fill="#1A3050"/>
  <!-- Property cards -->
  <rect x="48" y="420" width="368" height="360" rx="18" fill="#101C2E" filter="url(#shadow)"/>
  <rect x="72" y="444" width="320" height="200" rx="12" fill="#1A3050"/>
  <rect x="88" y="460" width="80" height="24" rx="12" fill="url(#gold)"/>
  <rect x="72" y="660" width="200" height="16" rx="5" fill="#E8EEF5"/>
  <rect x="72" y="684" width="120" height="14" rx="4" fill="#C9A962"/>
  <rect x="72" y="708" width="80" height="28" rx="14" fill="url(#gold)"/>
  <rect x="440" y="420" width="368" height="360" rx="18" fill="#101C2E" filter="url(#shadow)"/>
  <rect x="464" y="444" width="320" height="200" rx="12" fill="#142A42"/>
  <rect x="480" y="460" width="80" height="24" rx="12" fill="#4A6080"/>
  <rect x="464" y="660" width="200" height="16" rx="5" fill="#E8EEF5"/>
  <rect x="464" y="684" width="120" height="14" rx="4" fill="#C9A962"/>
  <rect x="464" y="708" width="80" height="28" rx="14" fill="url(#gold)"/>
  <rect x="832" y="420" width="400" height="360" rx="18" fill="#101C2E" filter="url(#shadow)"/>
  <rect x="856" y="444" width="352" height="200" rx="12" fill="#1A2840"/>
  <rect x="872" y="460" width="80" height="24" rx="12" fill="url(#gold)"/>
  <rect x="856" y="660" width="200" height="16" rx="5" fill="#E8EEF5"/>
  <rect x="856" y="684" width="120" height="14" rx="4" fill="#C9A962"/>
  <rect x="856" y="708" width="80" height="28" rx="14" fill="url(#gold)"/>
</svg>
