<svg width="135" height="108" viewBox="0 0 135 108" fill="none" xmlns="http://www.w3.org/2000/svg">
<path d="M88.8976 107.815C88.8976 107.918 88.943 108 88.9989 108H134.899C134.955 108 135 107.918 135 107.815C135 107.713 134.955 107.63 134.899 107.63H88.9989C88.943 107.63 88.8976 107.713 88.8976 107.815Z" fill="#E6E6E6"/>
<path d="M118.076 46.2448L113.663 47.4591V42.1455H117.667L118.076 46.2448Z" fill="#9F616A"/>
<path d="M114.208 43.616C116.637 43.616 118.607 41.9691 118.607 39.9375C118.607 37.9059 116.637 36.2589 114.208 36.2589C111.779 36.2589 109.81 37.9059 109.81 39.9375C109.81 41.9691 111.779 43.616 114.208 43.616Z" fill="#9F616A"/>
<path d="M115.328 40.2261L114.723 40.841L113.626 39.2354C113.626 39.2354 112.226 39.2959 112.226 38.4264C112.226 37.5569 110.941 37.5336 110.941 37.5336C110.941 37.5336 109.124 34.8784 112.889 35.5787C112.889 35.5787 115.501 34.0818 116.799 35.3613C116.799 35.3613 120.781 37.0383 119.641 39.959L117.747 42.9698L117.318 42.2879C117.318 42.2879 117.578 39.4277 115.326 40.2243L115.328 40.2261Z" fill="#090814"/>
<path d="M111.528 100.593H107.64V105.206H111.528V100.593Z" fill="#9F616A"/>
<path d="M108.071 107.849C108.735 107.899 112.062 108.119 112.229 107.481C112.317 107.053 112.281 106.614 112.125 106.2C111.806 103.539 111.687 103.509 111.615 103.492C111.502 103.464 111.171 103.596 110.635 103.885L110.601 103.904L110.593 103.936C110.584 103.978 110.346 104.955 109.22 104.804C108.447 104.702 108.197 104.559 108.117 104.489C108.2 104.459 108.271 104.409 108.321 104.346C108.364 104.283 108.39 104.214 108.397 104.142C108.404 104.07 108.393 103.998 108.364 103.93C108.208 103.541 108.007 103.165 107.766 102.807L107.715 102.733L103.297 105.226L100.568 105.878C100.467 105.903 100.373 105.945 100.294 106.004C100.215 106.062 100.153 106.134 100.112 106.215C100.056 106.328 100.043 106.452 100.075 106.571C100.107 106.691 100.182 106.798 100.291 106.88C100.786 107.253 101.77 107.891 102.804 107.97C103.079 107.992 103.443 108 103.851 108C105.557 108 108.049 107.852 108.067 107.849L108.071 107.849Z" fill="#090814"/>
<path d="M123.926 94.6405L120.843 96.6206L124.202 100.279L127.285 98.2988L123.926 94.6405Z" fill="#9F616A"/>
<path d="M126.469 102.157C127.033 101.859 129.833 100.338 129.501 99.7483C129.26 99.3635 128.912 99.0332 128.485 98.7855C126.294 96.8368 126.179 96.8741 126.109 96.8958C125.997 96.9315 125.832 97.2032 125.617 97.7064L125.604 97.7374L125.622 97.7669C125.645 97.8041 126.166 98.7016 125.166 99.155C124.479 99.4671 124.176 99.4811 124.061 99.4671C124.105 99.4008 124.125 99.3253 124.119 99.2497C124.107 99.1781 124.076 99.1095 124.03 99.0486C123.983 98.9877 123.921 98.936 123.849 98.897C123.441 98.668 123.008 98.4715 122.557 98.3101L122.464 98.2759L120.773 102.504L119.081 104.411C119.018 104.482 118.975 104.563 118.956 104.65C118.936 104.737 118.939 104.826 118.966 104.911C119.003 105.029 119.083 105.135 119.195 105.213C119.308 105.291 119.446 105.338 119.592 105.347C120.257 105.391 121.502 105.395 122.379 104.933C122.611 104.81 122.906 104.631 123.231 104.423C124.584 103.554 126.454 102.169 126.467 102.158L126.469 102.157Z" fill="#090814"/>
<path d="M106.388 68.0923L119.915 68.7084C119.915 68.7084 122.012 74.4707 119.017 77.2269L117.22 84.9939L125.307 94.2633L120.214 97.0204L110.685 84.9939L113.025 101.529L106.136 101.027L102.841 83.7408L106.388 68.0923Z" fill="#090814"/>
<path d="M111.828 45.4078C111.828 45.4078 113.026 43.6548 118.118 43.9046L119.316 46.1592C119.316 46.1592 122.91 46.9108 122.91 51.42C122.91 55.9293 121.113 69.4585 121.113 69.4585L105.549 70.8748L111.695 47.3907L111.826 45.4064L111.828 45.4078Z" fill="#E6E6E6"/>
<path d="M95.8992 61.4045C94.7536 61.8455 94.1131 62.7119 94.4679 63.3408C94.8226 63.9696 96.0404 64.1218 97.1858 63.6823C97.6472 63.5116 98.0505 63.2475 98.3592 62.9137L103.184 60.9949L101.995 59.0602L97.3634 61.158C96.8571 61.1384 96.3528 61.2232 95.8948 61.4049L95.8992 61.4045Z" fill="#9F616A"/>
<path d="M98.8882 62.8188L110.536 59.6371L110.549 59.6263L119.422 52.7598C119.789 52.4761 120.082 52.1324 120.284 51.7501C120.486 51.3678 120.592 50.9549 120.596 50.5369C120.599 50.119 120.5 49.7049 120.305 49.3202C120.11 48.9355 119.822 48.5884 119.46 48.3003C119.098 48.0121 118.669 47.7892 118.2 47.6451C117.731 47.5011 117.232 47.439 116.733 47.4627C116.234 47.4864 115.746 47.5954 115.3 47.783C114.853 47.9706 114.457 48.2328 114.137 48.5533L107.473 55.2085L97.8769 60.4227L98.889 62.8186L98.8882 62.8188Z" fill="#E6E6E6"/>
<path d="M76.6318 25.6647H75.9223V9.40879C75.9223 6.91342 74.737 4.52026 72.6274 2.75577C70.5177 0.99128 67.6564 9.52118e-09 64.6728 9.52117e-09H23.4936C22.0163 -5.55754e-05 20.5534 0.243269 19.1885 0.71608C17.8236 1.18889 16.5834 1.88193 15.5388 2.75562C14.4941 3.62931 13.6654 4.66655 13.1001 5.8081C12.5347 6.94966 12.2437 8.17317 12.2437 9.40879V98.5911C12.2437 101.086 13.4289 103.48 15.5386 105.244C17.6483 107.009 20.5096 108 23.4931 108H64.6726C67.6561 108 70.5174 107.009 72.627 105.244C74.7367 103.48 75.9219 101.087 75.9219 98.5912V37.2359H76.6318V25.6647Z" fill="#E6E6E6"/>
<path d="M65.1267 2.4469H59.7518C59.9992 2.95383 60.0937 3.50386 60.0269 4.04852C59.9602 4.59319 59.7343 5.11576 59.3691 5.57019C59.004 6.02461 58.5108 6.39695 57.933 6.65437C57.3553 6.91179 56.7107 7.04639 56.0561 7.04632H32.4651C31.8105 7.04635 31.1659 6.91171 30.5882 6.65427C30.0105 6.39683 29.5174 6.02449 29.1523 5.57007C28.7872 5.11565 28.5613 4.59309 28.4946 4.04845C28.4278 3.50381 28.5223 2.9538 28.7697 2.4469H23.7492C21.5212 2.4469 19.3845 3.18715 17.809 4.5048C16.2336 5.82245 15.3485 7.60957 15.3485 9.47301V98.5262C15.3485 100.39 16.2336 102.177 17.809 103.494C19.3845 104.812 21.5212 105.552 23.7492 105.552H65.1267C67.3547 105.552 69.4915 104.812 71.0669 103.494C72.6423 102.177 73.5274 100.39 73.5274 98.5262V9.47316C73.5274 7.60971 72.6423 5.8226 71.0669 4.50494C69.4915 3.18729 67.3547 2.4469 65.1267 2.4469Z" fill="white"/>
<path d="M32.2014 27.1734C36.7642 27.1734 40.4631 24.0797 40.4631 20.2635C40.4631 16.4473 36.7642 13.3536 32.2014 13.3536C27.6387 13.3536 23.9398 16.4473 23.9398 20.2635C23.9398 24.0797 27.6387 27.1734 32.2014 27.1734Z" fill="#6C63FF"/>
<path d="M31.9431 23.6605C31.424 23.6675 30.909 23.5821 30.4323 23.4099C29.9556 23.2378 29.528 22.9829 29.1781 22.6621C28.8281 22.3412 28.5637 21.9619 28.4023 21.5491C28.241 21.1363 28.1864 20.6996 28.2421 20.2678C28.3523 19.3614 28.8562 18.5203 29.6583 17.9039C30.4604 17.2875 31.505 16.9386 32.5941 16.9233C33.8029 16.9233 34.797 17.2478 35.4697 17.8618C36.108 18.445 36.4066 19.2652 36.3111 20.1716C36.2206 21.0302 35.7852 21.4772 35.4355 21.7018C35.2811 21.8068 35.1028 21.8846 34.9115 21.9304C34.7201 21.9762 34.5196 21.9891 34.3222 21.9683C34.1302 21.9398 33.9488 21.8743 33.7924 21.777C33.6359 21.6797 33.5087 21.5533 33.4209 21.4078C33.3759 21.4516 33.3287 21.4937 33.2795 21.5341C32.9115 21.821 32.4262 21.9793 31.9231 21.9764C31.6988 21.9781 31.4766 21.9403 31.2709 21.8655C31.0652 21.7907 30.8807 21.6805 30.7293 21.5421C30.5497 21.3685 30.415 21.1656 30.3337 20.9464C30.2524 20.7271 30.2263 20.4961 30.2569 20.2679C30.2998 19.8331 30.5177 19.4232 30.8752 19.1054C31.0467 18.9503 31.2543 18.8262 31.4852 18.7406C31.7161 18.6551 31.9656 18.61 32.2181 18.6081C32.4407 18.6072 32.6613 18.6435 32.8669 18.7148C33.0726 18.7861 33.2592 18.891 33.4158 19.0233L33.4327 18.8648C33.4404 18.7907 33.4831 18.7222 33.5513 18.6743C33.6195 18.6265 33.7076 18.6033 33.7963 18.6098C33.8849 18.6163 33.9668 18.652 34.024 18.7091C34.0812 18.7661 34.109 18.8398 34.1012 18.9139L33.9224 20.6023C33.8746 21.0565 34.0674 21.3609 34.4384 21.4155C34.5441 21.4226 34.6505 21.4121 34.7515 21.3846C34.8524 21.3572 34.9458 21.3134 35.0264 21.2557C35.2688 21.1005 35.5725 20.7778 35.6421 20.1226C35.7219 19.364 35.4912 18.7132 34.9745 18.2417C34.4326 17.7462 33.6081 17.4844 32.5938 17.4844C31.6725 17.4993 30.7895 17.7954 30.1112 18.317C29.4328 18.8385 29.0058 19.5495 28.9107 20.3161C28.8628 20.6703 28.906 21.0291 29.0374 21.3683C29.1688 21.7074 29.3853 22.0192 29.6724 22.2828C29.9595 22.5463 30.3106 22.7555 30.7023 22.8963C31.0939 23.0372 31.5169 23.1064 31.9431 23.0994C32.4689 23.1231 32.9941 23.0436 33.4765 22.8672C33.5173 22.8522 33.5612 22.8441 33.6057 22.8435C33.6502 22.8428 33.6944 22.8496 33.7358 22.8633C33.7771 22.8771 33.8148 22.8976 33.8466 22.9237C33.8783 22.9498 33.9036 22.9809 33.9209 23.0152C33.9381 23.0495 33.9471 23.0863 33.9471 23.1236C33.9472 23.1608 33.9384 23.1977 33.9213 23.232C33.9042 23.2664 33.879 23.2976 33.8474 23.3237C33.8157 23.3499 33.7781 23.3705 33.7368 23.3844C33.2301 23.5692 32.6833 23.6645 32.1306 23.6643C32.068 23.6643 32.0057 23.663 31.9431 23.6605ZM32.2173 19.1692C31.5606 19.1692 30.9926 19.6728 30.9246 20.3172C30.9021 20.4679 30.9171 20.6208 30.9684 20.7665C31.0198 20.9121 31.1065 21.0473 31.2232 21.1637C31.3115 21.2449 31.4195 21.3094 31.5401 21.3528C31.6606 21.3962 31.7908 21.4176 31.9221 21.4155C32.5361 21.4155 33.1938 21.0606 33.2768 20.2675C33.2961 20.1205 33.2788 19.9718 33.226 19.8306C33.1731 19.6895 33.0859 19.559 32.9698 19.4475C32.875 19.36 32.7593 19.29 32.6302 19.2422C32.5011 19.1943 32.3615 19.1697 32.2203 19.1697L32.2173 19.1692Z" fill="white"/>
<path d="M32.2014 69.2534C36.7642 69.2534 40.4631 66.1598 40.4631 62.3436C40.4631 58.5274 36.7642 55.4337 32.2014 55.4337C27.6387 55.4337 23.9398 58.5274 23.9398 62.3436C23.9398 66.1598 27.6387 69.2534 32.2014 69.2534Z" fill="#6C63FF"/>
<path d="M27.1664 63.8876C27.1664 63.7731 27.1998 63.6604 27.2637 63.5592C27.3277 63.4581 27.4202 63.3715 27.5333 63.307C27.6463 63.2425 27.7765 63.2022 27.9125 63.1894C28.0485 63.1766 28.1861 63.1918 28.3135 63.2337L30.4128 61.4767C30.3628 61.3703 30.3447 61.2552 30.36 61.1416C30.3752 61.0279 30.4235 60.9191 30.5005 60.8246C30.5775 60.7301 30.6809 60.6528 30.8018 60.5994C30.9227 60.5459 31.0574 60.518 31.1941 60.518C31.3308 60.518 31.4655 60.5459 31.5864 60.5994C31.7073 60.6528 31.8107 60.7301 31.8877 60.8246C31.9647 60.9191 32.0129 61.0279 32.0282 61.1416C32.0435 61.2552 32.0254 61.3703 31.9754 61.4767L33.2372 62.532C33.4344 62.4677 33.6533 62.4677 33.8505 62.532L35.6157 61.0563C35.5452 60.9062 35.5387 60.7404 35.5972 60.5868C35.6557 60.4331 35.7757 60.301 35.937 60.2127C36.0983 60.1244 36.291 60.0852 36.4828 60.1017C36.6745 60.1183 36.8536 60.1896 36.99 60.3036C37.1263 60.4176 37.2115 60.5674 37.2313 60.7278C37.2511 60.8882 37.2042 61.0493 37.0986 61.1842C36.993 61.3191 36.8351 61.4195 36.6514 61.4684C36.4677 61.5174 36.2694 61.5119 36.09 61.453L34.3254 62.9289C34.3751 63.0353 34.3931 63.1503 34.3777 63.2638C34.3623 63.3773 34.314 63.486 34.237 63.5804C34.16 63.6747 34.0566 63.752 33.9358 63.8053C33.815 63.8587 33.6804 63.8866 33.5438 63.8866C33.4072 63.8866 33.2727 63.8587 33.1519 63.8053C33.0311 63.752 32.9277 63.6747 32.8507 63.5804C32.7737 63.486 32.7254 63.3773 32.71 63.2638C32.6946 63.1503 32.7125 63.0353 32.7623 62.9289L31.5007 61.8739C31.3037 61.9385 31.0847 61.9385 30.8877 61.8739L28.7868 63.6303C28.8321 63.7264 28.8514 63.8296 28.8435 63.9327C28.8355 64.0358 28.8005 64.1361 28.7408 64.2265C28.6812 64.317 28.5984 64.3953 28.4984 64.4559C28.3985 64.5165 28.2837 64.5579 28.1624 64.5772C28.0411 64.5965 27.9162 64.5931 27.7966 64.5674C27.677 64.5416 27.5657 64.4941 27.4706 64.4283C27.3754 64.3624 27.2989 64.2798 27.2463 64.1863C27.1937 64.0929 27.1665 63.9909 27.1664 63.8876ZM27.8376 63.8876C27.8378 63.9153 27.8478 63.9423 27.8664 63.9653C27.8849 63.9882 27.9112 64.0061 27.9418 64.0165C27.9724 64.027 28.0061 64.0297 28.0386 64.0242C28.071 64.0187 28.1008 64.0053 28.1242 63.9857C28.1475 63.966 28.1634 63.9411 28.1698 63.9139C28.1762 63.8867 28.1729 63.8586 28.1602 63.833C28.1475 63.8074 28.126 63.7855 28.0985 63.7702C28.071 63.7548 28.0386 63.7465 28.0055 63.7465C27.9609 63.7467 27.9182 63.7616 27.8867 63.7881C27.8553 63.8145 27.8376 63.8503 27.8376 63.8876ZM33.3758 63.1853C33.3758 63.2132 33.3857 63.2405 33.4043 63.2637C33.4229 63.287 33.4493 63.305 33.4802 63.3157C33.5111 63.3263 33.545 63.3291 33.5778 63.3236C33.6105 63.3181 33.6406 63.3045 33.6641 63.2847C33.6877 63.2649 33.7037 63.2397 33.7101 63.2123C33.7165 63.1848 33.713 63.1565 33.7001 63.1307C33.6871 63.1049 33.6654 63.0829 33.6375 63.0675C33.6096 63.0521 33.5769 63.044 33.5435 63.0442C33.4989 63.0444 33.4563 63.0594 33.4249 63.0858C33.3935 63.1122 33.3758 63.148 33.3758 63.1853ZM31.0268 61.2199C31.0266 61.2477 31.0362 61.2749 31.0545 61.2981C31.0728 61.3213 31.0988 61.3395 31.1294 61.3503C31.16 61.3611 31.1938 61.364 31.2264 61.3588C31.259 61.3535 31.289 61.3403 31.3126 61.3208C31.3363 61.3013 31.3524 61.2763 31.3591 61.2491C31.3658 61.2219 31.3626 61.1936 31.3501 61.1679C31.3376 61.1422 31.3162 61.1202 31.2887 61.1046C31.2612 61.0891 31.2287 61.0807 31.1955 61.0805C31.1511 61.0805 31.1085 61.0952 31.077 61.1213C31.0454 61.1474 31.0274 61.1828 31.0268 61.2199ZM36.2295 60.7992C36.2297 60.8269 36.2397 60.8539 36.2582 60.8769C36.2768 60.8998 36.303 60.9177 36.3337 60.9282C36.3643 60.9386 36.398 60.9413 36.4304 60.9358C36.4629 60.9303 36.4927 60.9169 36.516 60.8973C36.5394 60.8776 36.5553 60.8527 36.5617 60.8255C36.5681 60.7983 36.5647 60.7702 36.552 60.7446C36.5393 60.719 36.5179 60.6972 36.4904 60.6818C36.4628 60.6664 36.4305 60.6582 36.3974 60.6581C36.3752 60.6581 36.3533 60.6617 36.3329 60.6688C36.3125 60.6759 36.2939 60.6863 36.2783 60.6994C36.2627 60.7126 36.2504 60.7281 36.242 60.7452C36.2336 60.7624 36.2294 60.7807 36.2295 60.7992Z" fill="white"/>
<path d="M54.48 90.0606C59.0428 90.0606 62.7416 86.9669 62.7416 83.1507C62.7416 79.3345 59.0428 76.2408 54.48 76.2408C49.9172 76.2408 46.2184 79.3345 46.2184 83.1507C46.2184 86.9669 49.9172 90.0606 54.48 90.0606Z" fill="#6C63FF"/>
<path d="M50.9551 86.2387C50.6438 86.2384 50.3454 86.1348 50.1252 85.9507C49.9051 85.7666 49.7812 85.517 49.7807 85.2566V81.0456C49.7809 80.785 49.9046 80.5352 50.1248 80.3509C50.345 80.1666 50.6436 80.0629 50.9551 80.0626H58.0041C58.3157 80.0628 58.6145 80.1665 58.8348 80.3508C59.0552 80.5351 59.1791 80.7849 59.1793 81.0456V85.2566C59.1787 85.517 59.0547 85.7667 58.8344 85.9508C58.6141 86.1349 58.3155 86.2384 58.0041 86.2387H50.9551ZM50.4519 81.0456V85.2566C50.4521 85.3682 50.5052 85.4752 50.5995 85.5542C50.6938 85.6331 50.8217 85.6776 50.9551 85.6779H58.0041C58.1375 85.6779 58.2655 85.6336 58.3599 85.5547C58.4543 85.4758 58.5074 85.3688 58.5074 85.2572V81.0456C58.5074 80.9338 58.4544 80.8267 58.3601 80.7476C58.2657 80.6685 58.1377 80.6239 58.0041 80.6237H50.9551C50.8217 80.6244 50.694 80.669 50.5997 80.748C50.5055 80.827 50.4524 80.934 50.4519 81.0456ZM54.2737 83.6534L51.253 81.6881C51.1827 81.6424 51.137 81.5752 51.1259 81.5013C51.1148 81.4274 51.1393 81.3529 51.1939 81.2941C51.2485 81.2353 51.3289 81.197 51.4172 81.1878C51.5055 81.1785 51.5947 81.199 51.665 81.2446L54.48 83.0758L57.2944 81.2448C57.3292 81.2221 57.369 81.2054 57.4116 81.1956C57.4541 81.1858 57.4985 81.1831 57.5423 81.1877C57.5861 81.1922 57.6284 81.204 57.6667 81.2222C57.7051 81.2404 57.7388 81.2648 57.7659 81.2939C57.793 81.323 57.813 81.3563 57.8247 81.3919C57.8364 81.4274 57.8396 81.4646 57.8342 81.5012C57.8287 81.5378 57.8147 81.5732 57.7929 81.6053C57.7711 81.6374 57.742 81.6656 57.7072 81.6882L54.6865 83.6534C54.6273 83.6915 54.5548 83.7121 54.4801 83.7121C54.4055 83.7121 54.3329 83.6915 54.2737 83.6534Z" fill="white"/>
<path d="M84.3554 90.1663L55.2123 90.1792C55.1354 90.1792 55.073 90.1096 55.073 90.024C55.073 89.9384 55.1354 89.8688 55.2123 89.8688L84.3554 89.856C84.4324 89.856 84.4948 89.9255 84.4948 90.0112C84.4948 90.0968 84.4324 90.1663 84.3554 90.1663Z" fill="#E6E6E6"/>
<path d="M86.2986 92.1849C87.734 92.1849 88.8977 91.2116 88.8977 90.011C88.8977 88.8104 87.734 87.8372 86.2986 87.8372C84.8631 87.8372 83.6994 88.8104 83.6994 90.011C83.6994 91.2116 84.8631 92.1849 86.2986 92.1849Z" fill="#E6E6E6"/>
<path d="M91.8292 60.1326L55.555 48.5176C55.509 48.5029 55.4719 48.4735 55.4519 48.4359C55.4318 48.3983 55.4305 48.3556 55.4481 48.3171C55.4657 48.2787 55.5009 48.2477 55.5458 48.2309C55.5908 48.2141 55.6419 48.213 55.6878 48.2277L91.962 59.8427C92.008 59.8574 92.0451 59.8868 92.0651 59.9244C92.0852 59.962 92.0865 60.0047 92.0689 60.0432C92.0513 60.0816 92.0162 60.1126 91.9712 60.1294C91.9262 60.1462 91.8752 60.1473 91.8292 60.1326Z" fill="#CCCCCC"/>
<path d="M93.5697 63.3033C95.0051 63.3033 96.1688 62.33 96.1688 61.1294C96.1688 59.9288 95.0051 58.9556 93.5697 58.9556C92.1342 58.9556 90.9705 59.9288 90.9705 61.1294C90.9705 62.33 92.1342 63.3033 93.5697 63.3033Z" fill="#6C63FF"/>
<path d="M4.02626 27.2795L32.052 27.2923C32.1254 27.2923 32.1848 27.2228 32.1848 27.1371C32.1848 27.0515 32.1254 26.982 32.052 26.982L4.02626 26.9691C3.95288 26.9691 3.89351 27.0387 3.89351 27.1243C3.89351 27.2099 3.95288 27.2795 4.02626 27.2795Z" fill="#E6E6E6"/>
<path d="M2.59914 29.453C4.0346 29.453 5.19828 28.4797 5.19828 27.2791C5.19828 26.0785 4.0346 25.1052 2.59914 25.1052C1.16367 25.1052 0 26.0785 0 27.2791C0 28.4797 1.16367 29.453 2.59914 29.453Z" fill="#E6E6E6"/>
<path d="M4.02626 69.3592L32.052 69.3721C32.1254 69.3721 32.1848 69.3025 32.1848 69.2169C32.1848 69.1312 32.1254 69.0617 32.052 69.0617L4.02626 69.0488C3.95288 69.0488 3.89351 69.1184 3.89351 69.204C3.89351 69.2897 3.95288 69.3592 4.02626 69.3592Z" fill="#E6E6E6"/>
<path d="M2.59914 71.533C4.0346 71.533 5.19828 70.5598 5.19828 69.3592C5.19828 68.1586 4.0346 67.1853 2.59914 67.1853C1.16367 67.1853 0 68.1586 0 69.3592C0 70.5598 1.16367 71.533 2.59914 71.533Z" fill="#E6E6E6"/>
<path d="M54.48 48.291C59.0428 48.291 62.7416 45.1974 62.7416 41.3812C62.7416 37.565 59.0428 34.4713 54.48 34.4713C49.9172 34.4713 46.2184 37.565 46.2184 41.3812C46.2184 45.1974 49.9172 48.291 54.48 48.291Z" fill="#6C63FF"/>
<path d="M51.0498 45.2027C51.0044 45.1437 50.9772 45.0761 50.9708 45.0062C50.9644 44.9363 50.9788 44.8661 51.0128 44.802L51.5943 43.7179C50.7942 43.1232 50.2847 42.3024 50.1636 41.4129C50.0424 40.5234 50.3181 39.6279 50.9378 38.8979C51.5575 38.168 52.4775 37.655 53.5215 37.4574C54.5654 37.2598 55.6599 37.3915 56.5949 37.8272C57.53 38.2629 58.2398 38.9719 58.5883 39.8184C58.9369 40.6648 58.8995 41.5891 58.4835 42.4139C58.0675 43.2388 57.3021 43.9062 56.3341 44.2881C55.366 44.6701 54.2635 44.7397 53.2378 44.4837L51.7544 45.323C51.699 45.3548 51.6366 45.377 51.5708 45.3882C51.505 45.3994 51.4372 45.3994 51.3714 45.3882C51.3056 45.377 51.2432 45.3548 51.1879 45.3229C51.1326 45.291 51.0856 45.2502 51.0496 45.2028L51.0498 45.2027ZM50.9541 39.9877C50.6993 40.5974 50.6776 41.2582 50.892 41.8787C51.1063 42.4992 51.5461 43.0485 52.1504 43.4506L52.3333 43.5718L51.7092 44.7388L53.143 43.9261L53.2847 43.966C53.7964 44.1101 54.3394 44.1594 54.8762 44.1105C55.4129 44.0616 55.9305 43.9155 56.3931 43.6826C56.8556 43.4496 57.252 43.1353 57.5548 42.7614C57.8576 42.3875 58.0596 41.963 58.1466 41.5173C58.2337 41.0717 58.2038 40.6155 58.059 40.1804C57.9142 39.7454 57.658 39.3419 57.3081 38.9979C56.9583 38.654 56.5232 38.3778 56.0329 38.1885C55.5427 37.9992 55.0092 37.9014 54.4692 37.9018H54.4672C53.6952 37.9017 52.9423 38.1023 52.3129 38.4761C51.6834 38.8498 51.2085 39.3781 50.9541 39.9877ZM55.5761 40.8474C55.576 40.7475 55.6114 40.6498 55.6777 40.5667C55.744 40.4835 55.8383 40.4187 55.9487 40.3804C56.059 40.3421 56.1805 40.332 56.2977 40.3514C56.4149 40.3709 56.5226 40.4189 56.6071 40.4896C56.6917 40.5602 56.7493 40.6502 56.7726 40.7482C56.796 40.8462 56.7841 40.9478 56.7384 41.0402C56.6927 41.1325 56.6153 41.2115 56.516 41.267C56.4167 41.3226 56.2999 41.3522 56.1804 41.3523C56.1011 41.3523 56.0225 41.3394 55.9492 41.314C55.8758 41.2887 55.8092 41.2515 55.7531 41.2047C55.6969 41.1578 55.6524 41.1021 55.622 41.0408C55.5916 40.9795 55.5761 40.9138 55.5761 40.8474ZM53.8655 40.8474C53.8655 40.7476 53.9008 40.6499 53.9672 40.5669C54.0335 40.4838 54.1278 40.4191 54.2381 40.3808C54.3484 40.3426 54.4698 40.3326 54.5869 40.352C54.704 40.3715 54.8116 40.4196 54.8961 40.4902C54.9805 40.5608 55.038 40.6508 55.0613 40.7487C55.0847 40.8467 55.0727 40.9482 55.027 41.0405C54.9813 41.1328 54.9039 41.2117 54.8047 41.2671C54.7054 41.3226 54.5886 41.3523 54.4692 41.3523C54.3899 41.3523 54.3114 41.3393 54.2381 41.3139C54.1649 41.2886 54.0983 41.2514 54.0422 41.2045C53.9861 41.1576 53.9416 41.102 53.9113 41.0407C53.8809 40.9794 53.8655 40.9138 53.8655 40.8474ZM52.1548 40.8474C52.1548 40.7476 52.1902 40.6499 52.2565 40.5668C52.3229 40.4838 52.4172 40.419 52.5275 40.3808C52.6379 40.3426 52.7593 40.3326 52.8764 40.3521C52.9936 40.3716 53.1012 40.4197 53.1856 40.4904C53.27 40.561 53.3275 40.651 53.3507 40.749C53.374 40.847 53.362 40.9485 53.3162 41.0408C53.2704 41.1331 53.193 41.2119 53.0936 41.2674C52.9943 41.3228 52.8775 41.3523 52.7581 41.3523C52.6788 41.3523 52.6003 41.3392 52.5271 41.3138C52.4539 41.2885 52.3874 41.2513 52.3313 41.2044C52.2753 41.1575 52.2309 41.1019 52.2005 41.0406C52.1702 40.9794 52.1548 40.9137 52.1548 40.8474Z" fill="white"/>
</svg>
