<svg width="128" height="101" viewBox="0 0 128 101" fill="none" xmlns="http://www.w3.org/2000/svg">
<path d="M12.2973 100.743C12.292 100.805 12.311 100.867 12.3501 100.915C12.3893 100.963 12.4455 100.994 12.5066 101H116.824C116.883 100.989 116.937 100.958 116.975 100.911C117.014 100.864 117.035 100.804 117.035 100.743C117.035 100.682 117.014 100.622 116.975 100.575C116.937 100.528 116.883 100.497 116.824 100.486H12.5066C12.4455 100.492 12.3893 100.523 12.3501 100.571C12.311 100.619 12.292 100.681 12.2973 100.743Z" fill="#D6D6E3"/>
<path d="M68.3512 75.3806C68.1995 76.4473 67.6763 77.4226 66.8773 78.1279C66.0783 78.8332 65.0569 79.2214 64.0002 79.2214C62.9436 79.2214 61.9222 78.8332 61.1232 78.1279C60.3242 77.4226 59.8009 76.4473 59.6493 75.3806H48.5178V100.486H79.4827V75.3806H68.3512Z" fill="#D6D6E3"/>
<path d="M126.274 76.0234H1.72624C1.26856 76.023 0.82975 75.8373 0.506119 75.5072C0.182487 75.1771 0.000465923 74.7295 0 74.2627L0 1.76078C0.000465923 1.29394 0.182487 0.846355 0.506119 0.516247C0.82975 0.186139 1.26856 0.000475247 1.72624 0H126.274C126.732 0.000604816 127.171 0.186325 127.494 0.516419C127.818 0.846513 128 1.29403 128 1.76078V74.2627C128 74.7295 127.818 75.1771 127.494 75.5072C127.17 75.8373 126.731 76.023 126.274 76.0234H126.274Z" fill="#090814"/>
<path d="M125.094 2.93811H3.21408V73.0853H125.094V2.93811Z" fill="white"/>
<path d="M14.8896 7.20048C15.2681 7.20048 15.5749 6.88753 15.5749 6.50148C15.5749 6.11544 15.2681 5.80249 14.8896 5.80249C14.5111 5.80249 14.2043 6.11544 14.2043 6.50148C14.2043 6.88753 14.5111 7.20048 14.8896 7.20048Z" fill="#6C63FF"/>
<path d="M17.491 7.20048C17.8695 7.20048 18.1763 6.88753 18.1763 6.50148C18.1763 6.11544 17.8695 5.80249 17.491 5.80249C17.1126 5.80249 16.8058 6.11544 16.8058 6.50148C16.8058 6.88753 17.1126 7.20048 17.491 7.20048Z" fill="#6C63FF"/>
<path d="M20.0923 7.20048C20.4708 7.20048 20.7776 6.88753 20.7776 6.50148C20.7776 6.11544 20.4708 5.80249 20.0923 5.80249C19.7139 5.80249 19.407 6.11544 19.407 6.50148C19.407 6.88753 19.7139 7.20048 20.0923 7.20048Z" fill="#6C63FF"/>
<path d="M33.9443 23.8751H15.255C14.9764 23.8751 14.7092 23.7622 14.5122 23.5612C14.3152 23.3603 14.2045 23.0877 14.2045 22.8035C14.2045 22.5193 14.3152 22.2468 14.5122 22.0458C14.7092 21.8448 14.9764 21.7319 15.255 21.7319H33.9443C34.2229 21.7319 34.4902 21.8448 34.6872 22.0458C34.8842 22.2468 34.9949 22.5193 34.9949 22.8035C34.9949 23.0877 34.8842 23.3603 34.6872 23.5612C34.4902 23.7622 34.2229 23.8751 33.9443 23.8751Z" fill="#CCCCCC"/>
<path d="M33.9443 19.7579H15.255C14.9764 19.7579 14.7092 19.645 14.5122 19.4441C14.3152 19.2431 14.2045 18.9705 14.2045 18.6863C14.2045 18.4021 14.3152 18.1296 14.5122 17.9286C14.7092 17.7276 14.9764 17.6147 15.255 17.6147H33.9443C34.2229 17.6147 34.4902 17.7276 34.6872 17.9286C34.8842 18.1296 34.9949 18.4021 34.9949 18.6863C34.9949 18.9705 34.8842 19.2431 34.6872 19.4441C34.4902 19.645 34.2229 19.7579 33.9443 19.7579Z" fill="#CCCCCC"/>
<path d="M20.5632 27.9359H15.255C14.9764 27.9359 14.7092 27.823 14.5122 27.622C14.3152 27.4211 14.2045 27.1485 14.2045 26.8643C14.2045 26.5801 14.3152 26.3075 14.5122 26.1066C14.7092 25.9056 14.9764 25.7927 15.255 25.7927H20.5632C20.8418 25.7927 21.109 25.9056 21.3061 26.1066C21.5031 26.3075 21.6138 26.5801 21.6138 26.8643C21.6138 27.1485 21.5031 27.4211 21.3061 27.622C21.109 27.823 20.8418 27.9359 20.5632 27.9359Z" fill="#CCCCCC"/>
<path d="M33.9443 61.9011H15.255C14.9764 61.9011 14.7092 61.7882 14.5122 61.5872C14.3152 61.3863 14.2045 61.1137 14.2045 60.8295C14.2045 60.5453 14.3152 60.2728 14.5122 60.0718C14.7092 59.8708 14.9764 59.7579 15.255 59.7579H33.9443C34.2229 59.7579 34.4902 59.8708 34.6872 60.0718C34.8842 60.2728 34.9949 60.5453 34.9949 60.8295C34.9949 61.1137 34.8842 61.3863 34.6872 61.5872C34.4902 61.7882 34.2229 61.9011 33.9443 61.9011Z" fill="#CCCCCC"/>
<path d="M33.9443 57.7838H15.255C14.9764 57.7838 14.7092 57.6709 14.5122 57.4699C14.3152 57.269 14.2045 56.9964 14.2045 56.7122C14.2045 56.428 14.3152 56.1554 14.5122 55.9545C14.7092 55.7535 14.9764 55.6406 15.255 55.6406H33.9443C34.2229 55.6406 34.4902 55.7535 34.6872 55.9545C34.8842 56.1554 34.9949 56.428 34.9949 56.7122C34.9949 56.9964 34.8842 57.269 34.6872 57.4699C34.4902 57.6709 34.2229 57.7838 33.9443 57.7838Z" fill="#CCCCCC"/>
<path d="M20.5632 65.9619H15.255C14.9764 65.9619 14.7092 65.849 14.5122 65.648C14.3152 65.4471 14.2045 65.1745 14.2045 64.8903C14.2045 64.6061 14.3152 64.3335 14.5122 64.1326C14.7092 63.9316 14.9764 63.8187 15.255 63.8187H20.5632C20.8418 63.8187 21.109 63.9316 21.3061 64.1326C21.5031 64.3335 21.6138 64.6061 21.6138 64.8903C21.6138 65.1745 21.5031 65.4471 21.3061 65.648C21.109 65.849 20.8418 65.9619 20.5632 65.9619Z" fill="#CCCCCC"/>
<path d="M33.4853 47.8188C33.2059 47.8194 32.9377 47.7074 32.7389 47.5072L27.7906 42.5229C27.6934 42.425 27.6163 42.3085 27.5636 42.18C27.511 42.0515 27.4839 41.9136 27.4839 41.7743C27.4839 41.6351 27.511 41.4972 27.5636 41.3687C27.6163 41.2402 27.6934 41.1237 27.7906 41.0258L32.7186 36.0616C32.9239 35.8557 33.2005 35.7408 33.4883 35.7417C33.7762 35.7426 34.0521 35.8593 34.2562 36.0664C34.4604 36.2753 34.575 36.5582 34.575 36.8531C34.575 37.148 34.4604 37.4309 34.2562 37.6397L30.5944 41.3756C30.4803 41.4922 30.4162 41.6503 30.4162 41.8151C30.4162 41.9799 30.4803 42.1379 30.5944 42.2546L34.2366 45.9699C34.3854 46.1213 34.4867 46.3144 34.5278 46.5247C34.5688 46.735 34.5477 46.9529 34.4672 47.151C34.3866 47.349 34.2502 47.5182 34.0753 47.6371C33.9004 47.756 33.6948 47.8192 33.4846 47.8188H33.4853Z" fill="#6C63FF"/>
<path d="M57.1677 23.8751H38.4784C38.1998 23.8751 37.9326 23.7622 37.7355 23.5612C37.5385 23.3603 37.4278 23.0877 37.4278 22.8035C37.4278 22.5193 37.5385 22.2468 37.7355 22.0458C37.9326 21.8448 38.1998 21.7319 38.4784 21.7319H57.1677C57.4463 21.7319 57.7135 21.8448 57.9105 22.0458C58.1076 22.2468 58.2182 22.5193 58.2182 22.8035C58.2182 23.0877 58.1076 23.3603 57.9105 23.5612C57.7135 23.7622 57.4463 23.8751 57.1677 23.8751Z" fill="#CCCCCC"/>
<path d="M57.1677 27.9359H24.6557C24.377 27.9359 24.1098 27.823 23.9128 27.622C23.7158 27.4211 23.6051 27.1485 23.6051 26.8643C23.6051 26.5801 23.7158 26.3075 23.9128 26.1066C24.1098 25.9056 24.377 25.7927 24.6557 25.7927H57.1677C57.4463 25.7927 57.7135 25.9056 57.9105 26.1066C58.1076 26.3075 58.2182 26.5801 58.2182 26.8643C58.2182 27.1485 58.1076 27.4211 57.9105 27.622C57.7135 27.823 57.4463 27.9359 57.1677 27.9359Z" fill="#CCCCCC"/>
<path d="M44.229 19.8143H38.9203C38.6417 19.8143 38.3745 19.7014 38.1775 19.5004C37.9804 19.2995 37.8698 19.0269 37.8698 18.7427C37.8698 18.4585 37.9804 18.186 38.1775 17.985C38.3745 17.784 38.6417 17.6711 38.9203 17.6711H44.2285C44.5071 17.6711 44.7743 17.784 44.9713 17.985C45.1684 18.186 45.279 18.4585 45.279 18.7427C45.279 19.0269 45.1684 19.2995 44.9713 19.5004C44.7743 19.7014 44.5071 19.8143 44.2285 19.8143H44.229Z" fill="#CCCCCC"/>
<path d="M57.1677 61.9011H38.4784C38.1998 61.9011 37.9326 61.7882 37.7355 61.5872C37.5385 61.3863 37.4278 61.1137 37.4278 60.8295C37.4278 60.5453 37.5385 60.2728 37.7355 60.0718C37.9326 59.8708 38.1998 59.7579 38.4784 59.7579H57.1677C57.4463 59.7579 57.7135 59.8708 57.9105 60.0718C58.1076 60.2728 58.2182 60.5453 58.2182 60.8295C58.2182 61.1137 58.1076 61.3863 57.9105 61.5872C57.7135 61.7882 57.4463 61.9011 57.1677 61.9011Z" fill="#CCCCCC"/>
<path d="M57.1677 65.9619H24.6557C24.377 65.9619 24.1098 65.849 23.9128 65.648C23.7158 65.4471 23.6051 65.1745 23.6051 64.8903C23.6051 64.6061 23.7158 64.3335 23.9128 64.1326C24.1098 63.9316 24.377 63.8187 24.6557 63.8187H57.1677C57.4463 63.8187 57.7135 63.9316 57.9105 64.1326C58.1076 64.3335 58.2182 64.6061 58.2182 64.8903C58.2182 65.1745 58.1076 65.4471 57.9105 65.648C57.7135 65.849 57.4463 65.9619 57.1677 65.9619Z" fill="#CCCCCC"/>
<path d="M44.229 57.8404H38.9203C38.6417 57.8404 38.3745 57.7275 38.1775 57.5266C37.9804 57.3256 37.8698 57.053 37.8698 56.7688C37.8698 56.4846 37.9804 56.2121 38.1775 56.0111C38.3745 55.8102 38.6417 55.6973 38.9203 55.6973H44.2285C44.5071 55.6973 44.7743 55.8102 44.9713 56.0111C45.1684 56.2121 45.279 56.4846 45.279 56.7688C45.279 57.053 45.1684 57.3256 44.9713 57.5266C44.7743 57.7275 44.5071 57.8404 44.2285 57.8404H44.229Z" fill="#CCCCCC"/>
<path d="M41.3704 47.8187C41.1602 47.8191 40.9546 47.7559 40.7797 47.637C40.6048 47.5181 40.4684 47.349 40.3879 47.1509C40.3073 46.9529 40.2862 46.7349 40.3273 46.5247C40.3683 46.3144 40.4696 46.1213 40.6184 45.9698L44.2606 42.2545C44.3747 42.1379 44.4388 41.9798 44.4388 41.815C44.4388 41.6502 44.3747 41.4922 44.2606 41.3755L40.5989 37.6398C40.3943 37.4312 40.2794 37.1482 40.2794 36.8532C40.2794 36.5582 40.3943 36.2752 40.5989 36.0666C40.8029 35.8594 41.0788 35.7427 41.3667 35.7418C41.6545 35.7409 41.9312 35.8558 42.1365 36.0617L47.0645 41.0259C47.1616 41.1238 47.2387 41.2403 47.2914 41.3688C47.344 41.4973 47.3711 41.6352 47.3711 41.7745C47.3711 41.9137 47.344 42.0516 47.2914 42.1801C47.2387 42.3086 47.1616 42.4251 47.0645 42.523L42.1161 47.5073C41.9175 47.7073 41.6495 47.8192 41.3704 47.8187Z" fill="#6C63FF"/>
<path d="M113.278 33.0875H88.7179C88.2797 33.0875 87.9243 32.6077 87.9243 32.0159C87.9243 31.4242 88.2797 30.9443 88.7179 30.9443H113.278C113.716 30.9443 114.072 31.4242 114.072 32.0159C114.072 32.6077 113.716 33.0875 113.278 33.0875Z" fill="#6C63FF"/>
<path d="M80.48 37.2386C83.3077 37.2386 85.6 34.9004 85.6 32.0162C85.6 29.1319 83.3077 26.7937 80.48 26.7937C77.6523 26.7937 75.36 29.1319 75.36 32.0162C75.36 34.9004 77.6523 37.2386 80.48 37.2386Z" fill="#F2F2F2"/>
<path d="M80.48 27.1201C79.3726 27.1208 78.2995 27.5119 77.4425 28.2272C76.5854 28.9426 75.9971 29.9381 75.7773 31.0451C75.5574 32.1522 75.7195 33.3027 76.236 34.3019C76.7526 35.301 77.5919 36.0873 78.6117 36.5275C79.7847 37.033 81.1065 37.0424 82.2863 36.5537C83.4662 36.0651 84.4074 35.1184 84.9029 33.9219C85.3984 32.7254 85.4076 31.3771 84.9285 30.1737C84.4495 28.9702 83.5213 28.0102 82.3483 27.5048C81.7573 27.2496 81.1218 27.1188 80.48 27.1201ZM80.48 26.7937C81.4926 26.7937 82.4825 27.1 83.3245 27.6738C84.1665 28.2477 84.8227 29.0633 85.2103 30.0176C85.5978 30.9719 85.6992 32.0219 85.5016 33.035C85.3041 34.0481 84.8164 34.9786 84.1004 35.709C83.3843 36.4394 82.472 36.9368 81.4789 37.1383C80.4857 37.3398 79.4562 37.2364 78.5207 36.8411C77.5851 36.4458 76.7855 35.7764 76.2229 34.9176C75.6603 34.0588 75.36 33.0491 75.36 32.0162C75.36 30.6311 75.8994 29.3027 76.8596 28.3233C77.8198 27.3439 79.1221 26.7937 80.48 26.7937Z" fill="#090814"/>
<path d="M79.9109 34.2309C79.8389 34.2309 79.7678 34.2138 79.7034 34.1809C79.639 34.1481 79.5829 34.1004 79.5397 34.0416L78.4016 32.4938C78.365 32.444 78.3385 32.3874 78.3233 32.3272C78.3082 32.267 78.3049 32.2043 78.3135 32.1428C78.3221 32.0813 78.3425 32.0221 78.3736 31.9686C78.4047 31.9151 78.4457 31.8684 78.4945 31.8311C78.5432 31.7938 78.5987 31.7667 78.6578 31.7512C78.7168 31.7358 78.7782 31.7324 78.8386 31.7412C78.8989 31.75 78.9569 31.7708 79.0094 31.8025C79.0618 31.8342 79.1076 31.8761 79.1442 31.9258L79.8888 32.9377L81.8013 30.0116C81.8351 29.9599 81.8786 29.9155 81.9292 29.8809C81.9798 29.8463 82.0367 29.8223 82.0964 29.8101C82.1562 29.7979 82.2177 29.7978 82.2775 29.8099C82.3372 29.822 82.3941 29.8459 82.4448 29.8804C82.4955 29.9149 82.5391 29.9592 82.573 30.0109C82.6069 30.0625 82.6305 30.1205 82.6424 30.1814C82.6544 30.2424 82.6544 30.3052 82.6426 30.3661C82.6308 30.4271 82.6073 30.4851 82.5735 30.5368L80.2973 34.0195C80.2561 34.0826 80.2007 34.1346 80.1358 34.1712C80.0708 34.2079 79.9982 34.2281 79.924 34.2302L79.9109 34.2309Z" fill="#6C63FF"/>
<path d="M80.48 51.6003C83.3077 51.6003 85.6 49.2621 85.6 46.3779C85.6 43.4936 83.3077 41.1554 80.48 41.1554C77.6523 41.1554 75.36 43.4936 75.36 46.3779C75.36 49.2621 77.6523 51.6003 80.48 51.6003Z" fill="#F2F2F2"/>
<path d="M80.48 41.4818C79.3726 41.4825 78.2995 41.8736 77.4425 42.5889C76.5854 43.3043 75.9971 44.2998 75.7773 45.4068C75.5574 46.5139 75.7195 47.6644 76.236 48.6636C76.7526 49.6627 77.5919 50.449 78.6117 50.8892C79.7847 51.3947 81.1065 51.4041 82.2863 50.9154C83.4662 50.4268 84.4074 49.4801 84.9029 48.2836C85.3984 47.0871 85.4076 45.7388 84.9285 44.5354C84.4495 43.3319 83.5213 42.3719 82.3483 41.8665C81.7573 41.6113 81.1218 41.4805 80.48 41.4818ZM80.48 41.1554C81.4926 41.1554 82.4825 41.4617 83.3245 42.0355C84.1665 42.6094 84.8227 43.425 85.2103 44.3793C85.5978 45.3336 85.6992 46.3836 85.5016 47.3967C85.3041 48.4098 84.8164 49.3403 84.1004 50.0707C83.3843 50.8011 82.472 51.2984 81.4789 51.5C80.4857 51.7015 79.4562 51.598 78.5207 51.2028C77.5851 50.8075 76.7855 50.1381 76.2229 49.2793C75.6603 48.4205 75.36 47.4108 75.36 46.3779C75.36 44.9928 75.8994 43.6644 76.8596 42.685C77.8198 41.7056 79.1221 41.1554 80.48 41.1554Z" fill="#090814"/>
<path d="M81.897 44.8088C81.741 44.5715 81.5302 44.377 81.283 44.2425C81.0359 44.108 80.7601 44.0376 80.48 44.0376C80.1999 44.0376 79.9241 44.108 79.677 44.2425C79.4298 44.377 79.219 44.5715 79.063 44.8088C79.1777 45.0962 79.3737 45.3422 79.6261 45.5154C79.8785 45.6886 80.1758 45.7811 80.48 45.7811C80.7842 45.7811 81.0815 45.6886 81.3339 45.5154C81.5863 45.3422 81.7823 45.0962 81.897 44.8088Z" fill="#6C63FF"/>
<path d="M78.8789 45.0847C78.854 45.0738 78.8304 45.0601 78.8085 45.0439C78.7754 45.0163 78.7489 44.9813 78.731 44.9416C78.7539 44.8937 78.7635 44.8404 78.7588 44.7873C78.7541 44.7342 78.7353 44.6835 78.7044 44.6406C78.6735 44.5976 78.6317 44.5641 78.5835 44.5436C78.5353 44.523 78.4825 44.5163 78.4309 44.5242C78.3792 44.532 78.3307 44.5541 78.2904 44.588C78.2501 44.6219 78.2197 44.6664 78.2024 44.7167C78.1851 44.7669 78.1816 44.821 78.1922 44.8732C78.2028 44.9253 78.2272 44.9735 78.2627 45.0126C78.2828 45.0343 78.3057 45.0531 78.3307 45.0684C78.3633 45.0876 78.3897 45.116 78.407 45.15C78.4397 45.2174 78.4848 45.2777 78.5397 45.3277C78.596 45.3771 78.6569 45.4208 78.7214 45.4583C78.6326 45.7149 78.5822 45.9836 78.572 46.2555C78.4688 46.2574 78.3665 46.2742 78.268 46.3057C78.2175 46.3217 78.1698 46.3459 78.1269 46.3775C78.1154 46.376 78.1038 46.3752 78.0922 46.375C78.0395 46.3748 77.9878 46.3894 77.9427 46.417C77.8976 46.4447 77.8608 46.4845 77.8363 46.532C77.8118 46.5795 77.8005 46.633 77.8037 46.6866C77.8069 46.7402 77.8244 46.7919 77.8544 46.836C77.8844 46.8802 77.9256 46.9151 77.9737 46.937C78.0218 46.9589 78.0748 46.9669 78.1271 46.9602C78.1793 46.9535 78.2287 46.9324 78.27 46.899C78.3113 46.8657 78.3428 46.8214 78.3611 46.7711C78.3725 46.7388 78.3923 46.7103 78.4185 46.6888C78.4446 46.6672 78.4761 46.6534 78.5094 46.6489C78.534 46.6458 78.5587 46.6442 78.5834 46.644C78.6177 47.0275 78.7343 47.3986 78.925 47.7311C78.7743 47.839 78.6627 47.9946 78.6074 48.1737C78.5992 48.1782 78.5916 48.1837 78.5846 48.19C78.5726 48.1996 78.5613 48.2103 78.551 48.2218C78.5168 48.2602 78.4932 48.3072 78.4826 48.358C78.4721 48.4088 78.4749 48.4615 78.491 48.5108C78.507 48.56 78.5355 48.6041 78.5737 48.6384C78.6119 48.6727 78.6584 48.696 78.7083 48.7059C78.7583 48.7158 78.8099 48.7121 78.858 48.6949C78.906 48.6778 78.9487 48.6479 78.9817 48.6084C79.0147 48.5689 79.0368 48.5211 79.0457 48.47C79.0546 48.4189 79.0501 48.3663 79.0325 48.3176C79.0194 48.2822 79.0169 48.2437 79.0252 48.2069C79.0335 48.17 79.0523 48.1365 79.0792 48.1105C79.1008 48.0894 79.1235 48.0695 79.1472 48.0509C79.2895 48.24 79.469 48.3966 79.6741 48.5107C79.8793 48.6249 80.1055 48.694 80.3384 48.7137V46.0954C80.0298 46.0716 79.7327 45.9658 79.4766 45.7885C79.2205 45.6112 79.0145 45.3685 78.8789 45.0847ZM82.868 46.3776C82.8564 46.3778 82.8448 46.3786 82.8333 46.3801C82.7899 46.3492 82.7424 46.325 82.6922 46.3083C82.5937 46.2767 82.4913 46.2599 82.3882 46.2582C82.3771 45.9865 82.3267 45.718 82.2387 45.4614C82.3033 45.4239 82.3641 45.3802 82.4205 45.3308C82.4772 45.278 82.5238 45.2148 82.5579 45.1446C82.5739 45.1142 82.5986 45.0893 82.6286 45.0733C82.6773 45.0453 82.7169 45.0034 82.7426 44.9528C82.7683 44.9021 82.7788 44.8449 82.7731 44.7882C82.7673 44.7315 82.7454 44.6778 82.7101 44.6336C82.6748 44.5894 82.6277 44.5567 82.5744 44.5395C82.5211 44.5222 82.4641 44.5213 82.4102 44.5367C82.3564 44.5521 82.3082 44.5832 82.2715 44.6262C82.2347 44.6691 82.2111 44.7221 82.2035 44.7786C82.1959 44.8351 82.2047 44.8926 82.2286 44.9441C82.2111 44.9839 82.1846 45.019 82.1512 45.0464C82.1288 45.0653 82.1052 45.0828 82.0808 45.0989C81.9447 45.3809 81.7385 45.6215 81.4827 45.7967C81.2268 45.9718 80.9304 46.0754 80.623 46.0971V48.7183C80.8558 48.6981 81.0819 48.6288 81.287 48.5147C81.4921 48.4006 81.6716 48.2442 81.8142 48.0555C81.8394 48.0759 81.8606 48.0942 81.8782 48.1113C81.9063 48.1378 81.926 48.1722 81.935 48.2101C81.944 48.248 81.9417 48.2878 81.9286 48.3245C81.9112 48.3731 81.9067 48.4256 81.9156 48.4766C81.9246 48.5276 81.9466 48.5753 81.9795 48.6148C82.0125 48.6542 82.0551 48.684 82.103 48.7012C82.1509 48.7184 82.2025 48.7222 82.2524 48.7124C82.3022 48.7026 82.3487 48.6795 82.3869 48.6454C82.4251 48.6112 82.4538 48.5674 82.47 48.5183C82.4861 48.4691 82.4892 48.4165 82.4789 48.3658C82.4686 48.315 82.4453 48.268 82.4114 48.2295C82.4011 48.2179 82.3898 48.2073 82.3778 48.1976C82.3646 48.187 82.355 48.1813 82.355 48.1813C82.2999 48.0015 82.1872 47.8456 82.035 47.7387C82.2257 47.4063 82.3424 47.0352 82.3766 46.6516C82.4003 46.6519 82.4239 46.6536 82.4474 46.6565C82.4814 46.6611 82.5135 46.6748 82.5406 46.6963C82.5676 46.7178 82.5885 46.7463 82.6011 46.7788C82.625 46.8408 82.6688 46.8927 82.7255 46.9259C82.7822 46.959 82.8483 46.9714 82.9128 46.9611C82.9773 46.9507 83.0365 46.9182 83.0804 46.8689C83.1244 46.8196 83.1506 46.7565 83.1546 46.69C83.1566 46.65 83.1506 46.61 83.1371 46.5724C83.1235 46.5349 83.1027 46.5005 83.0758 46.4713C83.0489 46.4421 83.0165 46.4188 82.9805 46.4028C82.9446 46.3867 82.9058 46.3782 82.8666 46.3778L82.868 46.3776Z" fill="#6C63FF"/>
<path d="M113.278 47.4492H88.7179C88.2797 47.4492 87.9243 46.9694 87.9243 46.3776C87.9243 45.7858 88.2797 45.306 88.7179 45.306H113.278C113.716 45.306 114.072 45.7858 114.072 46.3776C114.072 46.9694 113.716 47.4492 113.278 47.4492Z" fill="#6C63FF"/>
<path d="M80.48 65.9621C83.3077 65.9621 85.6 63.624 85.6 60.7397C85.6 57.8554 83.3077 55.5172 80.48 55.5172C77.6523 55.5172 75.36 57.8554 75.36 60.7397C75.36 63.624 77.6523 65.9621 80.48 65.9621Z" fill="#F2F2F2"/>
<path d="M80.48 55.8436C79.3726 55.8443 78.2995 56.2354 77.4425 56.9508C76.5854 57.6661 75.9971 58.6616 75.7773 59.7686C75.5574 60.8757 75.7195 62.0263 76.236 63.0254C76.7526 64.0245 77.5919 64.8108 78.6117 65.2511C79.7847 65.7565 81.1065 65.7659 82.2863 65.2772C83.4662 64.7886 84.4074 63.8419 84.9029 62.6454C85.3984 61.4489 85.4076 60.1006 84.9285 58.8972C84.4495 57.6937 83.5213 56.7337 82.3483 56.2283C81.7573 55.9731 81.1218 55.8423 80.48 55.8436ZM80.48 55.5172C81.4926 55.5172 82.4825 55.8235 83.3245 56.3974C84.1665 56.9712 84.8227 57.7868 85.2103 58.7411C85.5978 59.6954 85.6992 60.7455 85.5016 61.7585C85.3041 62.7716 84.8164 63.7021 84.1004 64.4325C83.3843 65.1629 82.472 65.6603 81.4789 65.8618C80.4857 66.0633 79.4562 65.9599 78.5207 65.5646C77.5851 65.1693 76.7855 64.4999 76.2229 63.6411C75.6603 62.7823 75.36 61.7726 75.36 60.7397C75.36 59.3546 75.8994 58.0262 76.8596 57.0468C77.8198 56.0674 79.1221 55.5172 80.48 55.5172Z" fill="#090814"/>
<path d="M80.4355 57.9652L80.6074 57.9665L80.7722 57.9711L80.8522 57.9747L81.007 57.984L81.155 57.9965C82.4091 58.1207 82.9344 58.633 83.0725 59.8814L83.0805 59.9605L83.0928 60.1115L83.1038 60.3099L83.1054 60.3509L83.1099 60.5193L83.1112 60.6946L83.1099 60.8702L83.1054 61.0383L83.1019 61.1199L83.0928 61.2779L83.0805 61.4288C82.9587 62.708 82.4565 63.2438 81.2326 63.3847L81.155 63.3928L81.007 63.4054L80.8125 63.4166L80.7723 63.4183L80.6072 63.4228L80.4354 63.4241L80.2635 63.4228L80.0987 63.4183L80.0187 63.4147L79.8638 63.4054L79.7158 63.3928C78.4619 63.2683 77.9358 62.7557 77.7986 61.5075L77.7906 61.4284L77.7782 61.2782L77.7672 61.0791L77.7656 61.0381L77.7611 60.8702L77.7598 60.7829V60.6061L77.761 60.5193L77.7654 60.3512L77.769 60.2696L77.7781 60.1116L77.7904 59.9607C77.9122 58.6815 78.4144 58.1457 79.6382 58.0049L79.7158 57.9967L79.8638 57.9841L80.0584 57.9729L80.0986 57.9712L80.2637 57.9667C80.3199 57.9657 80.3772 57.9652 80.4355 57.9652ZM80.4382 61.5134L80.4043 61.5153C80.3392 61.5232 80.2792 61.5551 80.2357 61.605C80.1922 61.655 80.1681 61.7195 80.1681 61.7863C80.1681 61.8532 80.1922 61.9177 80.2357 61.9676C80.2792 62.0176 80.3392 62.0495 80.4043 62.0573L80.4363 62.0593L80.4702 62.0573C80.5353 62.0495 80.5953 62.0176 80.6388 61.9676C80.6824 61.9177 80.7064 61.8532 80.7064 61.7863C80.7064 61.7195 80.6824 61.655 80.6388 61.605C80.5953 61.5551 80.5353 61.5232 80.4702 61.5153L80.4382 61.5134ZM80.4355 59.0569C80.37 59.0568 80.3067 59.0814 80.2577 59.1258C80.2087 59.1702 80.1774 59.2314 80.1698 59.2978L80.1678 59.3304V60.9681L80.1698 61.0008C80.1774 61.0671 80.2087 61.1283 80.2577 61.1727C80.3067 61.2172 80.3699 61.2417 80.4354 61.2417C80.501 61.2417 80.5642 61.2172 80.6132 61.1727C80.6622 61.1283 80.6934 61.0671 80.7011 61.0008L80.703 60.9681V59.3299L80.7011 59.2973C80.6935 59.2308 80.6622 59.1696 80.6132 59.1252C80.5642 59.0807 80.5009 59.0562 80.4354 59.0562L80.4355 59.0569Z" fill="#6C63FF"/>
<path d="M113.278 61.811H88.7179C88.2797 61.811 87.9243 61.3312 87.9243 60.7394C87.9243 60.1477 88.2797 59.6678 88.7179 59.6678H113.278C113.716 59.6678 114.072 60.1477 114.072 60.7394C114.072 61.3312 113.716 61.811 113.278 61.811Z" fill="#6C63FF"/>
<path d="M114 9.30297H14.16V9.13977H114V9.30297Z" fill="#CCCCCC"/>
<path d="M85.5437 21.3233C85.5174 21.3672 85.4829 21.4055 85.4422 21.4358C85.4014 21.4662 85.3552 21.4881 85.3062 21.5002C85.2572 21.5123 85.2063 21.5145 85.1564 21.5065C85.1066 21.4986 85.0587 21.4807 85.0157 21.4539L80.5313 18.6644C80.4444 18.6103 80.382 18.5232 80.358 18.4222C80.334 18.3212 80.3503 18.2146 80.4034 18.1258C80.4564 18.0371 80.5418 17.9735 80.6408 17.949C80.7399 17.9245 80.8444 17.9412 80.9313 17.9953L85.4154 20.7851C85.4584 20.8118 85.4959 20.8469 85.5257 20.8885C85.5554 20.93 85.5769 20.9771 85.5888 21.0271C85.6007 21.077 85.6029 21.1289 85.5951 21.1798C85.5874 21.2306 85.5699 21.2794 85.5437 21.3233Z" fill="#3F3D56"/>
<path d="M81.0597 18.5335C80.743 19.0631 80.2796 19.485 79.7279 19.7458C79.1762 20.0067 78.5611 20.0948 77.9602 19.9991C77.3594 19.9034 76.8 19.6281 76.3525 19.208C75.9051 18.788 75.5899 18.242 75.4467 17.6392C75.3035 17.0364 75.3387 16.4038 75.548 15.8214C75.7573 15.239 76.1311 14.733 76.6223 14.3674C77.1135 14.0017 77.7 13.7929 78.3076 13.7672C78.9151 13.7415 79.5165 13.9002 80.0357 14.2232C80.7318 14.6563 81.2308 15.3537 81.4228 16.162C81.6149 16.9704 81.4842 17.8234 81.0597 18.5335ZM76.4662 15.6757C76.2287 16.0729 76.1121 16.5329 76.1309 16.9977C76.1498 17.4625 76.3034 17.9112 76.5722 18.287C76.8411 18.6627 77.2131 18.9487 77.6414 19.1088C78.0696 19.2689 78.5347 19.2959 78.9779 19.1863C79.4212 19.0768 79.8226 18.8356 80.1315 18.4933C80.4404 18.151 80.6428 17.723 80.7132 17.2634C80.7836 16.8038 80.7187 16.3332 80.5269 15.9111C80.3351 15.4891 80.0249 15.1345 79.6355 14.8923C79.1134 14.5676 78.4862 14.4677 77.8919 14.6146C77.2976 14.7615 76.7848 15.1432 76.4664 15.6757H76.4662Z" fill="#3F3D56"/>
<path d="M94.1603 21.5986H88.6986C88.5134 21.5984 88.3358 21.5232 88.2048 21.3896C88.0739 21.2561 88.0002 21.0749 88 20.886V14.3433C88.0002 14.1544 88.0739 13.9733 88.2048 13.8397C88.3358 13.7061 88.5134 13.631 88.6986 13.6307H93.78L94.859 14.5081V20.8862C94.8588 21.0751 94.7851 21.2562 94.6541 21.3898C94.5231 21.5233 94.3455 21.5984 94.1603 21.5986Z" fill="#090814"/>
<path d="M88.6986 13.8359C88.5667 13.8361 88.4403 13.8896 88.347 13.9847C88.2538 14.0799 88.2013 14.2088 88.2011 14.3433V20.8861C88.2013 21.0206 88.2538 21.1496 88.347 21.2447C88.4403 21.3398 88.5667 21.3933 88.6986 21.3935H94.1603C94.2922 21.3933 94.4186 21.3398 94.5119 21.2447C94.6051 21.1496 94.6576 21.0206 94.6578 20.8861V14.6069L93.7094 13.8359H88.6986Z" fill="white"/>
<path d="M93.0974 15.7383H90.6113C90.5805 15.7383 90.5509 15.7258 90.5291 15.7035C90.5073 15.6813 90.495 15.6511 90.495 15.6196C90.495 15.5882 90.5073 15.558 90.5291 15.5357C90.5509 15.5135 90.5805 15.501 90.6113 15.501H93.0974C93.1283 15.501 93.1579 15.5135 93.1797 15.5357C93.2015 15.558 93.2137 15.5882 93.2137 15.6196C93.2137 15.6511 93.2015 15.6813 93.1797 15.7035C93.1579 15.7258 93.1283 15.7383 93.0974 15.7383Z" fill="#6C63FF"/>
<path d="M93.5774 16.1389H90.6113C90.5805 16.1389 90.5509 16.1264 90.5291 16.1042C90.5073 16.0819 90.495 16.0517 90.495 16.0203C90.495 15.9888 90.5073 15.9586 90.5291 15.9364C90.5509 15.9141 90.5805 15.9016 90.6113 15.9016H93.5774C93.6083 15.9016 93.6379 15.9141 93.6597 15.9364C93.6815 15.9586 93.6937 15.9888 93.6937 16.0203C93.6937 16.0517 93.6815 16.0819 93.6597 16.1042C93.6379 16.1264 93.6083 16.1389 93.5774 16.1389Z" fill="#6C63FF"/>
<path d="M93.0979 17.296H90.6113C90.5805 17.296 90.5509 17.3085 90.5291 17.3308C90.5073 17.353 90.495 17.3832 90.495 17.4147C90.495 17.4461 90.5073 17.4763 90.5291 17.4986C90.5509 17.5208 90.5805 17.5333 90.6113 17.5333H93.0979C93.1288 17.5333 93.1583 17.5208 93.1802 17.4986C93.202 17.4763 93.2142 17.4461 93.2142 17.4147C93.2142 17.3832 93.202 17.353 93.1802 17.3308C93.1583 17.3085 93.1288 17.296 93.0979 17.296Z" fill="#CCCCCC"/>
<path d="M93.5779 17.6965H90.6115C90.5807 17.6965 90.5511 17.709 90.5293 17.7313C90.5075 17.7535 90.4952 17.7837 90.4952 17.8152C90.4952 17.8466 90.5075 17.8768 90.5293 17.8991C90.5511 17.9213 90.5807 17.9338 90.6115 17.9338H93.5779C93.6088 17.9338 93.6384 17.9213 93.6602 17.8991C93.682 17.8768 93.6942 17.8466 93.6942 17.8152C93.6942 17.7837 93.682 17.7535 93.6602 17.7313C93.6384 17.709 93.6088 17.6965 93.5779 17.6965Z" fill="#CCCCCC"/>
<path d="M93.0974 19.3276H90.6113C90.5805 19.3276 90.5509 19.3151 90.5291 19.2929C90.5073 19.2706 90.495 19.2404 90.495 19.209C90.495 19.1775 90.5073 19.1473 90.5291 19.1251C90.5509 19.1028 90.5805 19.0903 90.6113 19.0903H93.0974C93.1283 19.0903 93.1579 19.1028 93.1797 19.1251C93.2015 19.1473 93.2137 19.1775 93.2137 19.209C93.2137 19.2404 93.2015 19.2706 93.1797 19.2929C93.1579 19.3151 93.1283 19.3276 93.0974 19.3276Z" fill="#CCCCCC"/>
<path d="M93.5774 19.7285H90.6113C90.5805 19.7285 90.5509 19.716 90.5291 19.6938C90.5073 19.6715 90.495 19.6413 90.495 19.6099C90.495 19.5784 90.5073 19.5482 90.5291 19.526C90.5509 19.5037 90.5805 19.4912 90.6113 19.4912H93.5774C93.6083 19.4912 93.6379 19.5037 93.6597 19.526C93.6815 19.5482 93.6937 19.5784 93.6937 19.6099C93.6937 19.6413 93.6815 19.6715 93.6597 19.6938C93.6379 19.716 93.6083 19.7285 93.5774 19.7285Z" fill="#CCCCCC"/>
<path d="M89.5758 16.2392C89.8029 16.2392 89.987 16.0515 89.987 15.8198C89.987 15.5882 89.8029 15.4004 89.5758 15.4004C89.3487 15.4004 89.1646 15.5882 89.1646 15.8198C89.1646 16.0515 89.3487 16.2392 89.5758 16.2392Z" fill="#6C63FF"/>
<path d="M90.0293 17.6147C90.0293 17.6698 90.0187 17.7243 89.998 17.7752C89.9774 17.8261 89.9471 17.8723 89.9089 17.9113C89.8708 17.9503 89.8255 17.9812 89.7756 18.0023C89.7257 18.0234 89.6722 18.0343 89.6182 18.0343C89.6147 18.0345 89.6112 18.0345 89.6077 18.0343C89.5268 18.0322 89.4484 18.0058 89.3821 17.9584C89.3159 17.911 89.2649 17.8448 89.2354 17.768C89.2059 17.6911 89.1992 17.6071 89.2163 17.5265C89.2333 17.4458 89.2734 17.3721 89.3313 17.3146C89.3892 17.257 89.4625 17.2181 89.542 17.2028C89.6215 17.1875 89.7036 17.1965 89.7782 17.2286C89.8527 17.2607 89.9163 17.3145 89.9609 17.3832C90.0056 17.452 90.0295 17.5327 90.0294 17.6152L90.0293 17.6147Z" fill="#CCCCCC"/>
<path d="M89.5758 19.8291C89.8029 19.8291 89.987 19.6413 89.987 19.4097C89.987 19.178 89.8029 18.9902 89.5758 18.9902C89.3487 18.9902 89.1646 19.178 89.1646 19.4097C89.1646 19.6413 89.3487 19.8291 89.5758 19.8291Z" fill="#CCCCCC"/>
<path d="M94.8379 14.5363H93.9926C93.9309 14.5363 93.8718 14.5113 93.8281 14.4668C93.7845 14.4223 93.76 14.362 93.76 14.299V13.6626C93.76 13.6598 93.7608 13.6571 93.7622 13.6547C93.7637 13.6524 93.7658 13.6505 93.7682 13.6493C93.7707 13.6481 93.7734 13.6476 93.7761 13.6479C93.7788 13.6482 93.7814 13.6493 93.7835 13.651L94.8469 14.5102C94.8492 14.5121 94.8509 14.5148 94.8518 14.5177C94.8526 14.5206 94.8525 14.5238 94.8515 14.5267C94.8505 14.5296 94.8487 14.5321 94.8463 14.5339C94.8438 14.5357 94.8409 14.5366 94.8379 14.5367V14.5363Z" fill="#090814"/>
<path d="M103.76 21.5986H98.2985C98.1133 21.5984 97.9358 21.5232 97.8048 21.3896C97.6738 21.2561 97.6002 21.0749 97.6 20.886V14.3433C97.6002 14.1544 97.6738 13.9733 97.8048 13.8397C97.9358 13.7061 98.1133 13.631 98.2985 13.6307H103.38L104.459 14.5081V20.8862C104.459 21.0751 104.385 21.2562 104.254 21.3898C104.123 21.5233 103.945 21.5984 103.76 21.5986Z" fill="#090814"/>
<path d="M98.2986 13.8359C98.1667 13.8361 98.0403 13.8896 97.947 13.9847C97.8538 14.0799 97.8013 14.2088 97.8011 14.3433V20.8861C97.8013 21.0206 97.8538 21.1496 97.947 21.2447C98.0403 21.3398 98.1667 21.3933 98.2986 21.3935H103.76C103.892 21.3933 104.019 21.3398 104.112 21.2447C104.205 21.1496 104.258 21.0206 104.258 20.8861V14.6069L103.309 13.8359H98.2986Z" fill="white"/>
<path d="M102.697 15.7383H100.211C100.181 15.7383 100.151 15.7258 100.129 15.7035C100.107 15.6813 100.095 15.6511 100.095 15.6196C100.095 15.5882 100.107 15.558 100.129 15.5357C100.151 15.5135 100.181 15.501 100.211 15.501H102.697C102.728 15.501 102.758 15.5135 102.78 15.5357C102.801 15.558 102.814 15.5882 102.814 15.6196C102.814 15.6511 102.801 15.6813 102.78 15.7035C102.758 15.7258 102.728 15.7383 102.697 15.7383Z" fill="#6C63FF"/>
<path d="M103.177 16.1389H100.211C100.181 16.1389 100.151 16.1264 100.129 16.1042C100.107 16.0819 100.095 16.0517 100.095 16.0203C100.095 15.9888 100.107 15.9586 100.129 15.9364C100.151 15.9141 100.181 15.9016 100.211 15.9016H103.177C103.208 15.9016 103.238 15.9141 103.26 15.9364C103.281 15.9586 103.294 15.9888 103.294 16.0203C103.294 16.0517 103.281 16.0819 103.26 16.1042C103.238 16.1264 103.208 16.1389 103.177 16.1389Z" fill="#6C63FF"/>
<path d="M102.698 17.296H100.211C100.181 17.296 100.151 17.3085 100.129 17.3308C100.107 17.353 100.095 17.3832 100.095 17.4147C100.095 17.4461 100.107 17.4763 100.129 17.4986C100.151 17.5208 100.181 17.5333 100.211 17.5333H102.698C102.729 17.5333 102.758 17.5208 102.78 17.4986C102.802 17.4763 102.814 17.4461 102.814 17.4147C102.814 17.3832 102.802 17.353 102.78 17.3308C102.758 17.3085 102.729 17.296 102.698 17.296Z" fill="#CCCCCC"/>
<path d="M103.178 17.6965H100.212C100.181 17.6965 100.151 17.709 100.129 17.7313C100.107 17.7535 100.095 17.7837 100.095 17.8152C100.095 17.8466 100.107 17.8768 100.129 17.8991C100.151 17.9213 100.181 17.9338 100.212 17.9338H103.178C103.209 17.9338 103.238 17.9213 103.26 17.8991C103.282 17.8768 103.294 17.8466 103.294 17.8152C103.294 17.7837 103.282 17.7535 103.26 17.7313C103.238 17.709 103.209 17.6965 103.178 17.6965Z" fill="#CCCCCC"/>
<path d="M102.697 19.3276H100.211C100.181 19.3276 100.151 19.3151 100.129 19.2929C100.107 19.2706 100.095 19.2404 100.095 19.209C100.095 19.1775 100.107 19.1473 100.129 19.1251C100.151 19.1028 100.181 19.0903 100.211 19.0903H102.697C102.728 19.0903 102.758 19.1028 102.78 19.1251C102.801 19.1473 102.814 19.1775 102.814 19.209C102.814 19.2404 102.801 19.2706 102.78 19.2929C102.758 19.3151 102.728 19.3276 102.697 19.3276Z" fill="#CCCCCC"/>
<path d="M103.177 19.7285H100.211C100.181 19.7285 100.151 19.716 100.129 19.6938C100.107 19.6715 100.095 19.6413 100.095 19.6099C100.095 19.5784 100.107 19.5482 100.129 19.526C100.151 19.5037 100.181 19.4912 100.211 19.4912H103.177C103.208 19.4912 103.238 19.5037 103.26 19.526C103.281 19.5482 103.294 19.5784 103.294 19.6099C103.294 19.6413 103.281 19.6715 103.26 19.6938C103.238 19.716 103.208 19.7285 103.177 19.7285Z" fill="#CCCCCC"/>
<path d="M99.1758 16.2392C99.4029 16.2392 99.587 16.0515 99.587 15.8198C99.587 15.5882 99.4029 15.4004 99.1758 15.4004C98.9487 15.4004 98.7646 15.5882 98.7646 15.8198C98.7646 16.0515 98.9487 16.2392 99.1758 16.2392Z" fill="#6C63FF"/>
<path d="M99.6293 17.6147C99.6293 17.6698 99.6187 17.7243 99.598 17.7752C99.5774 17.8261 99.5471 17.8723 99.5089 17.9113C99.4708 17.9503 99.4255 17.9812 99.3756 18.0023C99.3257 18.0234 99.2722 18.0343 99.2182 18.0343C99.2147 18.0345 99.2112 18.0345 99.2077 18.0343C99.1268 18.0322 99.0484 18.0058 98.9821 17.9584C98.9159 17.911 98.8648 17.8448 98.8353 17.768C98.8058 17.6911 98.7992 17.6071 98.8163 17.5265C98.8333 17.4458 98.8733 17.3721 98.9313 17.3146C98.9892 17.257 99.0625 17.2181 99.142 17.2028C99.2215 17.1875 99.3036 17.1965 99.3782 17.2286C99.4527 17.2607 99.5162 17.3145 99.5609 17.3832C99.6056 17.452 99.6295 17.5327 99.6294 17.6152L99.6293 17.6147Z" fill="#CCCCCC"/>
<path d="M99.1758 19.8291C99.4029 19.8291 99.587 19.6413 99.587 19.4097C99.587 19.178 99.4029 18.9902 99.1758 18.9902C98.9487 18.9902 98.7646 19.178 98.7646 19.4097C98.7646 19.6413 98.9487 19.8291 99.1758 19.8291Z" fill="#CCCCCC"/>
<path d="M104.438 14.5363H103.593C103.531 14.5363 103.472 14.5113 103.428 14.4668C103.385 14.4223 103.36 14.362 103.36 14.299V13.6626C103.36 13.6598 103.361 13.6571 103.362 13.6547C103.364 13.6524 103.366 13.6505 103.368 13.6493C103.371 13.6481 103.373 13.6476 103.376 13.6479C103.379 13.6482 103.381 13.6493 103.384 13.651L104.447 14.5102C104.449 14.5121 104.451 14.5148 104.452 14.5177C104.453 14.5206 104.453 14.5238 104.452 14.5267C104.451 14.5296 104.449 14.5321 104.446 14.5339C104.444 14.5357 104.441 14.5366 104.438 14.5367V14.5363Z" fill="#090814"/>
<path d="M113.36 21.5986H107.899C107.713 21.5984 107.536 21.5232 107.405 21.3896C107.274 21.2561 107.2 21.0749 107.2 20.886V14.3433C107.2 14.1544 107.274 13.9733 107.405 13.8397C107.536 13.7061 107.713 13.631 107.899 13.6307H112.98L114.059 14.5081V20.8862C114.059 21.0751 113.985 21.2562 113.854 21.3898C113.723 21.5233 113.545 21.5984 113.36 21.5986Z" fill="#090814"/>
<path d="M107.899 13.8359C107.767 13.8361 107.64 13.8896 107.547 13.9847C107.454 14.0799 107.401 14.2088 107.401 14.3433V20.8861C107.401 21.0206 107.454 21.1496 107.547 21.2447C107.64 21.3398 107.767 21.3933 107.899 21.3935H113.36C113.492 21.3933 113.619 21.3398 113.712 21.2447C113.805 21.1496 113.858 21.0206 113.858 20.8861V14.6069L112.909 13.8359H107.899Z" fill="white"/>
<path d="M112.297 15.7383H109.811C109.781 15.7383 109.751 15.7258 109.729 15.7035C109.707 15.6813 109.695 15.6511 109.695 15.6196C109.695 15.5882 109.707 15.558 109.729 15.5357C109.751 15.5135 109.781 15.501 109.811 15.501H112.297C112.328 15.501 112.358 15.5135 112.38 15.5357C112.402 15.558 112.414 15.5882 112.414 15.6196C112.414 15.6511 112.402 15.6813 112.38 15.7035C112.358 15.7258 112.328 15.7383 112.297 15.7383Z" fill="#6C63FF"/>
<path d="M112.777 16.1389H109.811C109.781 16.1389 109.751 16.1264 109.729 16.1042C109.707 16.0819 109.695 16.0517 109.695 16.0203C109.695 15.9888 109.707 15.9586 109.729 15.9364C109.751 15.9141 109.781 15.9016 109.811 15.9016H112.777C112.808 15.9016 112.838 15.9141 112.86 15.9364C112.882 15.9586 112.894 15.9888 112.894 16.0203C112.894 16.0517 112.882 16.0819 112.86 16.1042C112.838 16.1264 112.808 16.1389 112.777 16.1389Z" fill="#6C63FF"/>
<path d="M112.298 17.296H109.811C109.781 17.296 109.751 17.3085 109.729 17.3308C109.707 17.353 109.695 17.3832 109.695 17.4147C109.695 17.4461 109.707 17.4763 109.729 17.4986C109.751 17.5208 109.781 17.5333 109.811 17.5333H112.298C112.329 17.5333 112.358 17.5208 112.38 17.4986C112.402 17.4763 112.414 17.4461 112.414 17.4147C112.414 17.3832 112.402 17.353 112.38 17.3308C112.358 17.3085 112.329 17.296 112.298 17.296Z" fill="#CCCCCC"/>
<path d="M112.778 17.6965H109.812C109.781 17.6965 109.751 17.709 109.729 17.7313C109.707 17.7535 109.695 17.7837 109.695 17.8152C109.695 17.8466 109.707 17.8768 109.729 17.8991C109.751 17.9213 109.781 17.9338 109.812 17.9338H112.778C112.809 17.9338 112.838 17.9213 112.86 17.8991C112.882 17.8768 112.894 17.8466 112.894 17.8152C112.894 17.7837 112.882 17.7535 112.86 17.7313C112.838 17.709 112.809 17.6965 112.778 17.6965Z" fill="#CCCCCC"/>
<path d="M112.297 19.3276H109.811C109.781 19.3276 109.751 19.3151 109.729 19.2929C109.707 19.2706 109.695 19.2404 109.695 19.209C109.695 19.1775 109.707 19.1473 109.729 19.1251C109.751 19.1028 109.781 19.0903 109.811 19.0903H112.297C112.328 19.0903 112.358 19.1028 112.38 19.1251C112.402 19.1473 112.414 19.1775 112.414 19.209C112.414 19.2404 112.402 19.2706 112.38 19.2929C112.358 19.3151 112.328 19.3276 112.297 19.3276Z" fill="#CCCCCC"/>
<path d="M112.777 19.7285H109.811C109.781 19.7285 109.751 19.716 109.729 19.6938C109.707 19.6715 109.695 19.6413 109.695 19.6099C109.695 19.5784 109.707 19.5482 109.729 19.526C109.751 19.5037 109.781 19.4912 109.811 19.4912H112.777C112.808 19.4912 112.838 19.5037 112.86 19.526C112.882 19.5482 112.894 19.5784 112.894 19.6099C112.894 19.6413 112.882 19.6715 112.86 19.6938C112.838 19.716 112.808 19.7285 112.777 19.7285Z" fill="#CCCCCC"/>
<path d="M108.776 16.2392C109.003 16.2392 109.187 16.0515 109.187 15.8198C109.187 15.5882 109.003 15.4004 108.776 15.4004C108.549 15.4004 108.365 15.5882 108.365 15.8198C108.365 16.0515 108.549 16.2392 108.776 16.2392Z" fill="#6C63FF"/>
<path d="M109.229 17.6147C109.229 17.6698 109.219 17.7243 109.198 17.7752C109.177 17.8261 109.147 17.8723 109.109 17.9113C109.071 17.9503 109.025 17.9812 108.976 18.0023C108.926 18.0234 108.872 18.0343 108.818 18.0343C108.815 18.0345 108.811 18.0345 108.808 18.0343C108.727 18.0322 108.648 18.0058 108.582 17.9584C108.516 17.911 108.465 17.8448 108.435 17.768C108.406 17.6911 108.399 17.6071 108.416 17.5265C108.433 17.4458 108.473 17.3721 108.531 17.3146C108.589 17.257 108.663 17.2181 108.742 17.2028C108.821 17.1875 108.904 17.1965 108.978 17.2286C109.053 17.2607 109.116 17.3145 109.161 17.3832C109.206 17.452 109.229 17.5327 109.229 17.6152L109.229 17.6147Z" fill="#CCCCCC"/>
<path d="M108.776 19.8291C109.003 19.8291 109.187 19.6413 109.187 19.4097C109.187 19.178 109.003 18.9902 108.776 18.9902C108.549 18.9902 108.365 19.178 108.365 19.4097C108.365 19.6413 108.549 19.8291 108.776 19.8291Z" fill="#CCCCCC"/>
<path d="M114.038 14.5363H113.193C113.131 14.5363 113.072 14.5113 113.028 14.4668C112.985 14.4223 112.96 14.362 112.96 14.299V13.6626C112.96 13.6598 112.961 13.6571 112.962 13.6547C112.964 13.6524 112.966 13.6505 112.968 13.6493C112.971 13.6481 112.973 13.6476 112.976 13.6479C112.979 13.6482 112.981 13.6493 112.984 13.651L114.047 14.5102C114.049 14.5121 114.051 14.5148 114.052 14.5177C114.053 14.5206 114.053 14.5238 114.052 14.5267C114.051 14.5296 114.049 14.5321 114.046 14.5339C114.044 14.5357 114.041 14.5366 114.038 14.5367V14.5363Z" fill="#090814"/>
</svg>
