<svg width="135" height="108" viewBox="0 0 135 108" fill="none" xmlns="http://www.w3.org/2000/svg">
<path d="M98.6662 13.4992C98.6662 13.4992 97.7945 15.6605 97.5384 15.7536C97.2824 15.8466 96.629 23.9323 100.156 22.8895C103.683 21.8467 102.391 19.3116 102.391 19.3116C102.391 19.3116 102.452 16.5194 102.587 16.3322C102.722 16.145 98.818 13.399 98.818 13.399L98.6662 13.4992Z" fill="#FFB9B9"/>
<path d="M121.81 44.553H13.4446C12.9873 44.5588 12.5502 44.8077 12.2284 45.2456C11.9065 45.6836 11.726 46.275 11.726 46.8915C11.726 47.5079 11.9065 48.0994 12.2284 48.5373C12.5502 48.9752 12.9873 49.2242 13.4446 49.23H16.5141V105.174C16.5184 105.79 16.7031 106.379 17.028 106.813C17.3529 107.247 17.7917 107.49 18.249 107.49C18.7064 107.49 19.1452 107.247 19.4701 106.813C19.795 106.379 19.9797 105.79 19.984 105.174L20.0103 49.23H115.004V105.174C115.004 105.794 115.187 106.389 115.512 106.827C115.837 107.266 116.279 107.512 116.739 107.512C117.199 107.512 117.64 107.266 117.966 106.827C118.291 106.389 118.474 105.794 118.474 105.174L118.979 49.23H121.81C122.268 49.2242 122.705 48.9752 123.026 48.5373C123.348 48.0994 123.529 47.5079 123.529 46.8915C123.529 46.275 123.348 45.6836 123.026 45.2456C122.705 44.8077 122.268 44.5588 121.81 44.553H121.81Z" fill="#CCCCCC"/>
<path d="M32.2284 34.133V44.0359H13.8216C12.8513 44.0729 11.9095 43.591 11.2018 42.6954C10.4941 41.7998 10.078 40.5632 10.0442 39.2556C10.0105 37.9479 10.3618 36.6754 11.0217 35.7156C11.6815 34.7559 12.5962 34.187 13.5661 34.133C13.6512 34.129 13.7364 34.129 13.8216 34.133H32.2284Z" fill="#F2F2F2"/>
<path d="M32.6805 43.9599C32.6805 44.0609 32.6507 44.1577 32.5977 44.2291C32.5447 44.3006 32.4729 44.3407 32.3979 44.3408H13.4934C12.4666 44.3408 11.4819 43.791 10.7559 42.8124C10.0299 41.8338 9.62201 40.5065 9.62201 39.1225C9.62201 37.7386 10.0299 36.4113 10.7559 35.4327C11.4819 34.4541 12.4666 33.9043 13.4934 33.9043H32.3979C32.4729 33.9043 32.5448 33.9444 32.5977 34.0159C32.6507 34.0873 32.6805 34.1842 32.6805 34.2852C32.6805 34.3862 32.6507 34.4831 32.5977 34.5545C32.5448 34.6259 32.4729 34.666 32.3979 34.666H13.4934C12.6166 34.666 11.7756 35.1356 11.1556 35.9713C10.5356 36.807 10.1873 37.9404 10.1873 39.1223C10.1873 40.3042 10.5356 41.4377 11.1556 42.2734C11.7756 43.1091 12.6166 43.5786 13.4934 43.5786H32.3979C32.4351 43.5786 32.4718 43.5885 32.5061 43.6077C32.5404 43.6268 32.5716 43.6549 32.5978 43.6903C32.6241 43.7258 32.6449 43.7678 32.6591 43.814C32.6732 43.8603 32.6805 43.9098 32.6805 43.9599Z" fill="#6C63FF"/>
<path d="M32.2283 36.4185H12.4483C12.4338 36.4177 12.4201 36.4094 12.41 36.3954C12.3999 36.3814 12.3942 36.3626 12.3941 36.3431C12.394 36.3235 12.3994 36.3047 12.4093 36.2904C12.4192 36.2761 12.4328 36.2674 12.4472 36.2662H32.2283C32.2428 36.2673 32.2565 36.2757 32.2664 36.2899C32.2764 36.3041 32.282 36.3229 32.282 36.3424C32.282 36.3619 32.2764 36.3807 32.2664 36.3949C32.2565 36.4091 32.2428 36.4175 32.2283 36.4185Z" fill="#CCCCCC"/>
<path d="M32.2283 38.2466H12.4483C12.4407 38.2472 12.433 38.2458 12.4258 38.2423C12.4185 38.2388 12.4119 38.2333 12.4063 38.2263C12.4007 38.2192 12.3962 38.2107 12.3931 38.2012C12.39 38.1918 12.3884 38.1816 12.3883 38.1712C12.3882 38.1609 12.3897 38.1506 12.3927 38.1411C12.3956 38.1315 12.4 38.1229 12.4055 38.1157C12.411 38.1085 12.4176 38.1029 12.4248 38.0992C12.4319 38.0955 12.4396 38.0939 12.4472 38.0943H32.2283C32.2428 38.0953 32.2564 38.1038 32.2664 38.118C32.2764 38.1321 32.282 38.1509 32.282 38.1705C32.282 38.19 32.2764 38.2088 32.2664 38.223C32.2564 38.2371 32.2428 38.2456 32.2283 38.2466Z" fill="#CCCCCC"/>
<path d="M32.2283 40.0748H12.4483C12.4338 40.074 12.4201 40.0657 12.41 40.0517C12.3999 40.0376 12.3942 40.0189 12.3941 39.9993C12.394 39.9798 12.3994 39.9609 12.4093 39.9466C12.4192 39.9323 12.4328 39.9237 12.4472 39.9225H32.2283C32.2428 39.9235 32.2565 39.932 32.2664 39.9461C32.2764 39.9603 32.282 39.9791 32.282 39.9986C32.282 40.0182 32.2764 40.037 32.2664 40.0511C32.2565 40.0653 32.2428 40.0738 32.2283 40.0748Z" fill="#CCCCCC"/>
<path d="M32.2283 41.9031H12.4483C12.4407 41.9037 12.433 41.9023 12.4258 41.8988C12.4185 41.8953 12.4119 41.8898 12.4063 41.8828C12.4007 41.8757 12.3962 41.8672 12.3931 41.8577C12.39 41.8483 12.3884 41.8381 12.3883 41.8277C12.3882 41.8174 12.3897 41.8071 12.3927 41.7976C12.3956 41.788 12.4 41.7794 12.4055 41.7722C12.411 41.765 12.4176 41.7594 12.4248 41.7557C12.4319 41.752 12.4396 41.7504 12.4472 41.7508H32.2283C32.2428 41.7518 32.2564 41.7603 32.2664 41.7744C32.2764 41.7886 32.282 41.8074 32.282 41.827C32.282 41.8465 32.2764 41.8653 32.2664 41.8795C32.2564 41.8936 32.2428 41.9021 32.2283 41.9031Z" fill="#CCCCCC"/>
<path d="M28.7585 23.6999V33.6028H10.3518C9.38146 33.6397 8.43966 33.1579 7.73196 32.2623C7.02426 31.3667 6.60812 30.1301 6.57437 28.8225C6.54062 27.5148 6.892 26.2422 7.55182 25.2825C8.21163 24.3228 9.12631 23.7539 10.0962 23.6999C10.1814 23.6959 10.2666 23.6959 10.3518 23.6999H28.7585Z" fill="#F2F2F2"/>
<path d="M29.2107 33.5267C29.2106 33.6277 29.1809 33.7245 29.1279 33.7959C29.0749 33.8673 29.0031 33.9075 28.9281 33.9075H10.0236C8.99681 33.9075 8.01211 33.3578 7.28609 32.3791C6.56006 31.4005 6.15219 30.0733 6.15219 28.6893C6.15219 27.3053 6.56006 25.9781 7.28609 24.9995C8.01211 24.0208 8.99681 23.4711 10.0236 23.4711H28.9281C28.9652 23.4711 29.002 23.4809 29.0363 23.5001C29.0705 23.5192 29.1017 23.5473 29.1279 23.5826C29.1542 23.618 29.175 23.66 29.1892 23.7062C29.2034 23.7524 29.2107 23.8019 29.2107 23.852C29.2107 23.902 29.2034 23.9515 29.1892 23.9977C29.175 24.0439 29.1542 24.0859 29.1279 24.1213C29.1017 24.1566 29.0705 24.1847 29.0363 24.2038C29.002 24.223 28.9652 24.2328 28.9281 24.2328H10.0236C9.14674 24.2328 8.30582 24.7023 7.68581 25.538C7.06581 26.3737 6.71749 27.5072 6.71749 28.6891C6.71749 29.871 7.06581 31.0044 7.68581 31.8401C8.30582 32.6759 9.14674 33.1454 10.0236 33.1454H28.9281C29.0031 33.1454 29.0749 33.1856 29.1279 33.257C29.1809 33.3284 29.2106 33.4252 29.2107 33.5262V33.5267Z" fill="#090814"/>
<path d="M28.7585 25.9852H8.97849C8.97083 25.9858 8.96316 25.9843 8.95594 25.9808C8.94871 25.9773 8.9421 25.9719 8.93649 25.9648C8.93087 25.9578 8.92638 25.9493 8.92329 25.9398C8.92019 25.9303 8.91856 25.9201 8.91849 25.9098C8.91842 25.8994 8.91991 25.8892 8.92286 25.8796C8.92582 25.8701 8.93019 25.8615 8.9357 25.8543C8.94122 25.8471 8.94776 25.8415 8.95493 25.8378C8.9621 25.8341 8.96975 25.8324 8.97742 25.8329H28.7585C28.7662 25.8323 28.7738 25.8339 28.7811 25.8375C28.7883 25.8411 28.7948 25.8466 28.8004 25.8537C28.806 25.8608 28.8104 25.8694 28.8134 25.8789C28.8165 25.8884 28.818 25.8987 28.818 25.909C28.818 25.9194 28.8165 25.9296 28.8134 25.9391C28.8104 25.9486 28.806 25.9572 28.8004 25.9643C28.7948 25.9715 28.7883 25.977 28.7811 25.9806C28.7738 25.9841 28.7662 25.9857 28.7585 25.9852Z" fill="#CCCCCC"/>
<path d="M28.7585 27.8133H8.97849C8.97083 27.8139 8.96316 27.8125 8.95594 27.809C8.94871 27.8055 8.9421 27.8 8.93649 27.793C8.93087 27.7859 8.92638 27.7774 8.92329 27.7679C8.92019 27.7585 8.91856 27.7483 8.91849 27.7379C8.91842 27.7276 8.91991 27.7173 8.92286 27.7078C8.92582 27.6982 8.93019 27.6896 8.9357 27.6824C8.94122 27.6752 8.94776 27.6696 8.95493 27.6659C8.9621 27.6622 8.96975 27.6606 8.97742 27.661H28.7585C28.7662 27.6605 28.7738 27.662 28.7811 27.6656C28.7883 27.6692 28.7948 27.6747 28.8004 27.6818C28.806 27.689 28.8104 27.6975 28.8134 27.7071C28.8165 27.7166 28.818 27.7268 28.818 27.7371C28.818 27.7475 28.8165 27.7577 28.8134 27.7672C28.8104 27.7768 28.806 27.7853 28.8004 27.7925C28.7948 27.7996 28.7883 27.8051 28.7811 27.8087C28.7738 27.8123 28.7662 27.8138 28.7585 27.8133Z" fill="#CCCCCC"/>
<path d="M28.7585 29.6417H8.97849C8.97083 29.6423 8.96316 29.6408 8.95594 29.6373C8.94871 29.6338 8.9421 29.6284 8.93649 29.6213C8.93087 29.6143 8.92638 29.6058 8.92329 29.5963C8.92019 29.5868 8.91856 29.5766 8.91849 29.5663C8.91842 29.5559 8.91991 29.5457 8.92286 29.5361C8.92582 29.5266 8.93019 29.518 8.9357 29.5108C8.94122 29.5036 8.94776 29.498 8.95493 29.4943C8.9621 29.4906 8.96975 29.4889 8.97742 29.4894H28.7585C28.7662 29.4888 28.7738 29.4904 28.7811 29.494C28.7883 29.4976 28.7948 29.5031 28.8004 29.5102C28.806 29.5173 28.8104 29.5259 28.8134 29.5354C28.8165 29.5449 28.818 29.5552 28.818 29.5655C28.818 29.5759 28.8165 29.5861 28.8134 29.5956C28.8104 29.6051 28.806 29.6137 28.8004 29.6208C28.7948 29.6279 28.7883 29.6335 28.7811 29.6371C28.7738 29.6406 28.7662 29.6422 28.7585 29.6417Z" fill="#CCCCCC"/>
<path d="M28.7585 31.4698H8.97849C8.97083 31.4704 8.96316 31.4689 8.95594 31.4655C8.94871 31.462 8.9421 31.4565 8.93649 31.4495C8.93087 31.4424 8.92638 31.4339 8.92329 31.4244C8.92019 31.415 8.91856 31.4047 8.91849 31.3944C8.91842 31.3841 8.91991 31.3738 8.92286 31.3643C8.92582 31.3547 8.93019 31.3461 8.9357 31.3389C8.94122 31.3317 8.94776 31.3261 8.95493 31.3224C8.9621 31.3187 8.96975 31.3171 8.97742 31.3175H28.7585C28.7662 31.3169 28.7738 31.3185 28.7811 31.3221C28.7883 31.3257 28.7948 31.3312 28.8004 31.3383C28.806 31.3455 28.8104 31.354 28.8134 31.3635C28.8165 31.3731 28.818 31.3833 28.818 31.3936C28.818 31.404 28.8165 31.4142 28.8134 31.4237C28.8104 31.4332 28.806 31.4418 28.8004 31.449C28.7948 31.4561 28.7883 31.4616 28.7811 31.4652C28.7738 31.4688 28.7662 31.4703 28.7585 31.4698Z" fill="#CCCCCC"/>
<path d="M50.1711 79.5948V70.9605C50.1711 70.5789 50.0586 70.2129 49.8584 69.943C49.6582 69.6732 49.3867 69.5215 49.1036 69.5215H24.8146C24.5315 69.5215 24.26 69.6732 24.0598 69.943C23.8596 70.2129 23.7471 70.5789 23.7471 70.9605V79.5948H50.1711Z" fill="#CCCCCC"/>
<path d="M50.1711 82.833H23.7471V93.9858H50.1711V82.833Z" fill="#CCCCCC"/>
<path d="M23.7471 97.2238V105.858C23.7471 106.24 23.8595 106.606 24.0597 106.876C24.26 107.146 24.5315 107.297 24.8146 107.297H49.1034C49.3865 107.297 49.6581 107.146 49.8583 106.876C50.0585 106.606 50.171 106.24 50.171 105.858V97.2238H23.7471Z" fill="#CCCCCC"/>
<path d="M36.8257 75.9977C37.268 75.9977 37.6265 75.5144 37.6265 74.9183C37.6265 74.3221 37.268 73.8389 36.8257 73.8389C36.3834 73.8389 36.0249 74.3221 36.0249 74.9183C36.0249 75.5144 36.3834 75.9977 36.8257 75.9977Z" fill="white"/>
<path d="M36.8257 90.3884C37.268 90.3884 37.6265 89.9051 37.6265 89.309C37.6265 88.7129 37.268 88.2296 36.8257 88.2296C36.3834 88.2296 36.0249 88.7129 36.0249 89.309C36.0249 89.9051 36.3834 90.3884 36.8257 90.3884Z" fill="white"/>
<path d="M36.8686 104.475C37.3109 104.475 37.6694 103.991 37.6694 103.395C37.6694 102.799 37.3109 102.316 36.8686 102.316C36.4264 102.316 36.0678 102.799 36.0678 103.395C36.0678 103.991 36.4264 104.475 36.8686 104.475Z" fill="white"/>
<path d="M47.1752 59.6767V69.5796H28.7685C28.2843 69.6064 27.8009 69.5039 27.3461 69.2779C26.8914 69.052 26.4743 68.7071 26.1189 68.263C25.7634 67.8189 25.4766 67.2845 25.275 66.6905C25.0734 66.0964 24.9609 65.4545 24.944 64.8017C24.9271 64.1488 25.0062 63.4979 25.1767 62.8864C25.3472 62.2749 25.6057 61.7149 25.9373 61.2386C26.269 60.7622 26.6673 60.379 27.1093 60.111C27.5512 59.8429 28.0282 59.6953 28.5126 59.6767C28.5978 59.6727 28.6831 59.6727 28.7685 59.6767H47.1752Z" fill="#F2F2F2"/>
<path d="M47.6275 69.5033C47.6275 69.6043 47.5977 69.7012 47.5447 69.7726C47.4917 69.844 47.4199 69.8842 47.3449 69.8842H28.4407C27.4139 69.885 26.429 69.336 25.7025 68.358C24.9761 67.38 24.5676 66.053 24.567 64.6691C24.5664 63.2851 24.9737 61.9575 25.6993 60.9783C26.4249 59.9991 27.4093 59.4486 28.4361 59.4478H47.3449C47.4199 59.4478 47.4918 59.4879 47.5447 59.5593C47.5977 59.6307 47.6275 59.7276 47.6275 59.8286C47.6275 59.9297 47.5977 60.0265 47.5447 60.098C47.4918 60.1694 47.4199 60.2095 47.3449 60.2095H28.4407C27.5639 60.2095 26.723 60.679 26.1029 61.5147C25.4829 62.3504 25.1346 63.4839 25.1346 64.6658C25.1346 65.8477 25.4829 66.9811 26.1029 67.8168C26.723 68.6525 27.5639 69.122 28.4407 69.122H47.3452C47.4202 69.1222 47.492 69.1625 47.5449 69.234C47.5978 69.3054 47.6276 69.4023 47.6275 69.5033Z" fill="#090814"/>
<path d="M47.1754 61.962H27.3954C27.3877 61.9626 27.38 61.9611 27.3728 61.9576C27.3656 61.9541 27.359 61.9487 27.3534 61.9416C27.3477 61.9346 27.3433 61.9261 27.3402 61.9166C27.3371 61.9071 27.3354 61.8969 27.3354 61.8866C27.3353 61.8762 27.3368 61.866 27.3397 61.8565C27.3427 61.8469 27.3471 61.8383 27.3526 61.8311C27.3581 61.8239 27.3646 61.8183 27.3718 61.8146C27.379 61.8109 27.3866 61.8092 27.3943 61.8097H47.1754C47.1831 61.8091 47.1907 61.8107 47.1979 61.8143C47.2051 61.8179 47.2117 61.8234 47.2173 61.8305C47.2228 61.8376 47.2273 61.8462 47.2303 61.8557C47.2333 61.8652 47.2349 61.8755 47.2349 61.8858C47.2349 61.8962 47.2333 61.9064 47.2303 61.9159C47.2273 61.9254 47.2228 61.934 47.2173 61.9411C47.2117 61.9483 47.2051 61.9538 47.1979 61.9574C47.1907 61.961 47.1831 61.9625 47.1754 61.962Z" fill="#CCCCCC"/>
<path d="M47.1754 63.7904H27.3954C27.3877 63.791 27.38 63.7895 27.3728 63.786C27.3656 63.7825 27.359 63.7771 27.3534 63.77C27.3477 63.763 27.3433 63.7544 27.3402 63.745C27.3371 63.7355 27.3354 63.7253 27.3354 63.715C27.3353 63.7046 27.3368 63.6944 27.3397 63.6848C27.3427 63.6753 27.3471 63.6666 27.3526 63.6595C27.3581 63.6523 27.3646 63.6466 27.3718 63.643C27.379 63.6393 27.3866 63.6376 27.3943 63.638H47.1754C47.1831 63.6375 47.1907 63.6391 47.1979 63.6427C47.2051 63.6462 47.2117 63.6518 47.2173 63.6589C47.2228 63.666 47.2273 63.6746 47.2303 63.6841C47.2333 63.6936 47.2349 63.7038 47.2349 63.7142C47.2349 63.7245 47.2333 63.7348 47.2303 63.7443C47.2273 63.7538 47.2228 63.7624 47.2173 63.7695C47.2117 63.7766 47.2051 63.7822 47.1979 63.7857C47.1907 63.7893 47.1831 63.7909 47.1754 63.7904Z" fill="#CCCCCC"/>
<path d="M47.1754 65.6182H27.3954C27.3877 65.6189 27.38 65.6174 27.3728 65.6139C27.3656 65.6104 27.359 65.6049 27.3534 65.5979C27.3477 65.5908 27.3433 65.5823 27.3402 65.5729C27.3371 65.5634 27.3354 65.5532 27.3354 65.5428C27.3353 65.5325 27.3368 65.5222 27.3397 65.5127C27.3427 65.5032 27.3471 65.4945 27.3526 65.4873C27.3581 65.4801 27.3646 65.4745 27.3718 65.4708C27.379 65.4672 27.3866 65.4655 27.3943 65.4659H47.1754C47.1831 65.4654 47.1907 65.467 47.1979 65.4705C47.2051 65.4741 47.2117 65.4796 47.2173 65.4868C47.2228 65.4939 47.2273 65.5025 47.2303 65.512C47.2333 65.5215 47.2349 65.5317 47.2349 65.5421C47.2349 65.5524 47.2333 65.5627 47.2303 65.5722C47.2273 65.5817 47.2228 65.5903 47.2173 65.5974C47.2117 65.6045 47.2051 65.61 47.1979 65.6136C47.1907 65.6172 47.1831 65.6188 47.1754 65.6182Z" fill="#CCCCCC"/>
<path d="M47.1754 67.4466H27.3954C27.3877 67.4472 27.38 67.4458 27.3728 67.4423C27.3656 67.4388 27.359 67.4333 27.3534 67.4263C27.3477 67.4192 27.3433 67.4107 27.3402 67.4012C27.3371 67.3918 27.3354 67.3816 27.3354 67.3712C27.3353 67.3609 27.3368 67.3506 27.3397 67.3411C27.3427 67.3315 27.3471 67.3229 27.3526 67.3157C27.3581 67.3085 27.3646 67.3029 27.3718 67.2992C27.379 67.2955 27.3866 67.2939 27.3943 67.2943H47.1754C47.1831 67.2938 47.1907 67.2953 47.1979 67.2989C47.2051 67.3025 47.2117 67.308 47.2173 67.3151C47.2228 67.3223 47.2273 67.3308 47.2303 67.3404C47.2333 67.3499 47.2349 67.3601 47.2349 67.3704C47.2349 67.3808 47.2333 67.391 47.2303 67.4006C47.2273 67.4101 47.2228 67.4186 47.2173 67.4258C47.2117 67.4329 47.2051 67.4384 47.1979 67.442C47.1907 67.4456 47.1831 67.4471 47.1754 67.4466Z" fill="#CCCCCC"/>
<path d="M25.5576 20.3961H17.1709C17.0912 20.3959 17.0125 20.4205 16.941 20.468L14.8244 21.8963C14.7547 21.9362 14.6953 22.0028 14.6535 22.0879C14.6118 22.173 14.5895 22.2728 14.5895 22.3748C14.5895 22.4768 14.6118 22.5766 14.6535 22.6617C14.6953 22.7468 14.7547 22.8134 14.8244 22.8533L16.941 24.2816C17.0125 24.3291 17.0912 24.3537 17.1709 24.3535H25.5576C25.6732 24.3625 25.7867 24.3097 25.8737 24.2067C25.9606 24.1036 26.0139 23.9586 26.0221 23.803V20.9467C26.0139 20.791 25.9606 20.646 25.8737 20.5429C25.7867 20.4399 25.6732 20.3872 25.5576 20.3961Z" fill="#090814"/>
<path d="M26.0221 20.9467V23.803C26.0139 23.9586 25.9606 24.1036 25.8737 24.2067C25.7868 24.3097 25.6732 24.3625 25.5576 24.3535H23.8864V20.3961H25.5576C25.6732 20.3872 25.7868 20.4399 25.8737 20.5429C25.9606 20.646 26.0139 20.791 26.0221 20.9467Z" fill="#6C63FF"/>
<path d="M37.0359 23.096C37.7691 23.4433 38.5562 23.5303 39.3216 23.3485C40.0869 23.1668 40.8046 22.7225 41.4056 22.0584C42.9362 20.3268 43.4162 17.4738 43.8066 14.832L44.9616 7.01831L42.5435 9.26267C40.8046 10.8767 39.0265 12.5422 37.8225 14.88C36.6184 17.2177 36.0928 20.4088 37.0603 22.9384" fill="#E6E6E6"/>
<path d="M37.2418 32.5564C36.9965 30.1536 36.7454 27.7205 36.9171 25.291C37.0695 23.1341 37.5578 21.0273 38.5517 19.3001C39.0792 18.3849 39.7212 17.6008 40.4487 16.983C40.6384 16.8216 40.813 17.2268 40.6241 17.3874C39.3654 18.4597 38.3918 20.043 37.8438 21.9092C37.2385 23.9845 37.1413 26.2468 37.2458 28.4513C37.3088 29.7845 37.4425 31.109 37.5773 32.4316C37.5879 32.4914 37.5813 32.5545 37.5588 32.6079C37.5362 32.6614 37.4994 32.7014 37.4559 32.7197C37.4114 32.7358 37.3641 32.7277 37.3241 32.6971C37.284 32.6664 37.2546 32.6157 37.2421 32.556L37.2418 32.5564Z" fill="#F2F2F2"/>
<path d="M39.5995 28.3039C39.9139 28.9481 40.3462 29.4723 40.8546 29.8259C41.363 30.1796 41.9304 30.3509 42.5021 30.3232C43.9716 30.2291 45.1966 28.8468 46.2993 27.5345L49.5611 23.6527L47.4023 23.5134C45.8499 23.4134 44.2574 23.32 42.7787 23.9652C41.3001 24.6104 39.9368 26.1635 39.6666 28.2266" fill="#E6E6E6"/>
<path d="M36.5508 33.9373C37.7288 31.1277 39.0952 28.0061 41.5367 27.0073C42.2155 26.7308 42.9273 26.6317 43.6338 26.7155C43.8564 26.7413 43.8009 27.2041 43.5786 27.1782C42.3944 27.0457 41.2125 27.4672 40.2319 28.3717C39.2882 29.2374 38.5535 30.441 37.9321 31.7176C37.5512 32.4994 37.2099 33.3144 36.8686 34.1283C36.7593 34.3883 36.4406 34.2004 36.5508 33.9373Z" fill="#F2F2F2"/>
<path d="M34.6634 36.8947C34.7031 36.2747 34.8682 35.6814 35.1407 35.1792C35.4133 34.677 35.7829 34.2853 36.2092 34.0466V32.4225H38.2303V34.0979C38.6356 34.3482 38.9845 34.739 39.2412 35.2303C39.498 35.7216 39.6535 36.2959 39.6919 36.8947L40.1672 44.3409H34.1877L34.6634 36.8947Z" fill="#F2F2F2"/>
<path d="M73.0105 44.3283L72.1251 43.8257L71.5176 37.8427H63.4287L62.7703 43.8014L61.9781 44.3352C61.9402 44.3607 61.9099 44.4028 61.892 44.4545C61.874 44.5062 61.8696 44.5646 61.8793 44.6202C61.889 44.6757 61.9124 44.7252 61.9456 44.7607C61.9788 44.7961 62.0199 44.8154 62.0623 44.8155H72.9375C72.981 44.8155 73.0231 44.7952 73.0567 44.7581C73.0903 44.7211 73.1134 44.6694 73.122 44.612C73.1306 44.5547 73.1242 44.495 73.1039 44.4433C73.0835 44.3915 73.0506 44.3508 73.0105 44.3281V44.3283Z" fill="#E6E6E6"/>
<path d="M87.385 38.6386H47.6501C47.4416 38.638 47.2418 38.526 47.0945 38.3271C46.9473 38.1282 46.8646 37.8586 46.8646 37.5776V30.0251H88.1705V37.5776C88.1705 37.8586 88.0878 38.1282 87.9406 38.3271C87.7933 38.526 87.5935 38.638 87.385 38.6386Z" fill="#CCCCCC"/>
<path d="M88.2121 33.5947H46.8284V1.27903C46.8289 0.939962 46.929 0.614954 47.1069 0.375213C47.2848 0.135472 47.5259 0.000546359 47.7775 0H87.263C87.5146 0.000546359 87.7557 0.135472 87.9336 0.375213C88.1115 0.614954 88.2116 0.939962 88.2121 1.27903V33.5947Z" fill="#090814"/>
<path d="M85.7404 31.2493H49.3001C49.1061 31.249 48.9201 31.145 48.783 30.9601C48.6458 30.7752 48.5687 30.5246 48.5685 30.2631V3.33165C48.5687 3.07018 48.6458 2.8195 48.783 2.63461C48.9201 2.44972 49.1061 2.34573 49.3001 2.34546H85.7404C85.9343 2.34573 86.1203 2.44972 86.2575 2.63461C86.3947 2.8195 86.4718 3.07018 86.472 3.33165V30.2639C86.4718 30.5254 86.3947 30.7761 86.2575 30.961C86.1203 31.1458 85.9343 31.2498 85.7404 31.2501V31.2493Z" fill="white"/>
<path d="M76.1426 40.7526C76.3779 40.4597 76.658 40.24 76.9632 40.1088C77.2683 39.9777 77.5911 39.9383 77.9087 39.9935C78.2264 40.0486 78.5312 40.197 78.8017 40.4281C79.0722 40.6593 79.3019 40.9676 79.4744 41.3313L84.4034 40.15L85.6665 44.0123L78.6885 45.5472C78.2162 45.8963 77.6653 46 77.14 45.8387C76.6148 45.6773 76.1516 45.2621 75.8381 44.6716C75.5247 44.0811 75.3826 43.3562 75.4389 42.634C75.4951 41.9118 75.7457 41.2425 76.1434 40.7526H76.1426Z" fill="#FFB6B6"/>
<path d="M80.7061 45.6833L85.8446 45.597L86.495 45.5852L96.9496 45.4077C96.9496 45.4077 99.7886 41.757 102.261 37.9982L101.914 34.6199C101.576 31.3046 100.356 28.2678 98.4809 26.0746C94.9403 29.2636 92.887 35.5755 92.887 35.5755L86.4047 37.6653L85.7562 37.8742L81.7284 39.1716L80.7061 45.6833Z" fill="#6C63FF"/>
<path d="M107.011 66.4468H97.4192C97.4192 67.0008 86.9341 67.4503 86.9341 67.4503C86.7027 67.6851 86.4918 67.9544 86.3055 68.2532C85.7458 69.153 85.4399 70.2903 85.4417 71.4645V72.2674C85.4421 73.5981 85.8344 74.8741 86.5324 75.815C87.2305 76.7559 88.1771 77.2847 89.1643 77.2852H107.011C107.998 77.2841 108.944 76.7551 109.642 75.8143C110.34 74.8735 110.733 73.5979 110.734 72.2674V71.4645C110.732 70.1343 110.34 68.8591 109.642 67.9185C108.944 66.9779 107.998 66.4486 107.011 66.4468Z" fill="#E4E4E4"/>
<path d="M100.036 77.0859H96.1642V107.208H100.036V77.0859Z" fill="#E4E4E4"/>
<path d="M85.1449 107.025C85.1449 107.588 91.0117 107.243 98.2488 107.243C105.486 107.243 111.353 107.588 111.353 107.025C111.353 106.461 105.486 101.989 98.2488 101.989C91.0117 101.989 85.1449 106.461 85.1449 107.025Z" fill="#E4E4E4"/>
<path d="M82.5441 103.583H79.6625L78.2918 88.6023H82.5444L82.5441 103.583Z" fill="#FFB6B6"/>
<path d="M74.0278 103.583H71.1463L69.7756 88.6023H74.0281L74.0278 103.583Z" fill="#FFB6B6"/>
<path d="M99.8391 17.3374C102.606 17.3374 104.849 14.314 104.849 10.5844C104.849 6.85492 102.606 3.83154 99.8391 3.83154C97.0721 3.83154 94.8291 6.85492 94.8291 10.5844C94.8291 14.314 97.0721 17.3374 99.8391 17.3374Z" fill="#FFB6B6"/>
<path d="M107.948 56.8533C107.948 56.8533 109.629 68.8346 103.233 70.3604C96.8367 71.8862 87.6032 72.9585 87.6032 72.9585L83.4579 99.0325L77.8877 98.3621C77.8877 98.3621 78.6285 66.9748 80.4503 64.5193C82.2721 62.0637 93.7867 54.7117 93.7867 54.7117L107.948 56.8533Z" fill="#090814"/>
<path d="M95.4559 51.8318L92.6585 55.6137C92.6585 55.6137 72.4606 59.9997 71.6814 66.2876C70.5049 75.7811 69.1155 96.4254 69.1155 96.4254L75.1883 95.8114L77.5695 72.3445L87.2858 69.3654L98.3403 61.2451L95.4559 51.8318Z" fill="#090814"/>
<path d="M104.66 6.55351C104.165 5.29577 103.537 2.78915 102.539 2.32416C101.985 2.07638 101.412 1.91184 100.83 1.83354L99.1338 2.7131L100.057 1.74509C99.8774 1.73132 99.6978 1.71953 99.5182 1.70975L98.3733 2.30329L98.959 1.68929C97.8917 1.67462 96.7901 1.82404 95.9631 2.69987C95.2578 3.44655 94.5596 6.27513 94.4466 7.47378C94.3259 8.62061 94.3681 9.78793 94.5711 10.9135L94.861 11.2855C94.9625 10.972 95.0387 10.6449 95.0885 10.3096C95.1925 9.68311 95.3921 9.09268 95.6747 8.57593C95.9573 8.05918 96.3166 7.62744 96.7298 7.30824L96.7452 7.29626C97.2314 6.92737 97.8215 6.94493 98.379 6.97138L101.027 7.09993C101.665 7.13093 102.35 7.18528 102.847 7.72384C103.163 8.12123 103.411 8.6059 103.575 9.14465C103.822 9.81609 104.304 12.3479 104.304 12.3479C104.304 12.3479 104.577 11.8699 104.708 12.2256C104.918 11.2972 105.045 10.3387 105.088 9.36991C105.13 8.39693 104.982 7.42609 104.66 6.55351Z" fill="#090814"/>
<path d="M122.183 13.5502C121.863 13.5787 121.552 13.7012 121.272 13.9092C120.991 14.1172 120.748 14.4056 120.559 14.7541C120.37 15.1025 120.24 15.5026 120.178 15.9261C120.116 16.3496 120.124 16.7862 120.2 17.2052L116.171 21.211L117.379 25.1045L123.01 19.3399C123.524 19.1193 123.96 18.6523 124.235 18.0273C124.511 17.4023 124.606 16.6628 124.504 15.949C124.402 15.2352 124.109 14.5967 123.681 14.1545C123.253 13.7123 122.72 13.4971 122.182 13.5498L122.183 13.5502Z" fill="#FFB6B6"/>
<path d="M121.534 21.7277L111.435 36.8469C111.435 36.8469 106.605 34.7627 102.869 32.5033L101.191 25.5561C100.802 23.9445 100.635 22.2499 100.701 20.5572C105.879 18.6999 111.902 25.6107 111.902 25.6107L119.462 17.6285L121.534 21.7277Z" fill="#6C63FF"/>
<path d="M97.9678 57.9698C96.1659 57.1308 94.3034 56.2634 92.2929 55.9377L92.2065 55.9237L92.2303 55.811C94.3107 45.965 93.7914 39.6668 92.772 30.2055C92.5552 28.1648 92.8338 26.0843 93.5663 24.2745C94.2987 22.4648 95.4457 21.0228 96.8361 20.1638L96.8483 20.1564L102.588 19.6647L102.601 19.6637L106.776 21.3186C107.376 21.5585 107.902 22.0571 108.272 22.7381C108.642 23.4191 108.837 24.2449 108.826 25.089C108.78 28.2005 108.876 31.6743 108.978 35.3519C109.206 43.6027 109.441 52.1343 108.104 57.6698L108.097 57.6987L108.079 57.7175C106.85 59.0666 105.311 59.7955 103.726 59.7785C101.853 59.7788 99.941 58.8885 97.9678 57.9698Z" fill="#6C63FF"/>
<path d="M134.805 108H0.195026C0.0877005 108 0 107.839 0 107.64C0 107.441 0.0873938 107.28 0.195026 107.28H134.805C134.912 107.28 135 107.441 135 107.64C135 107.839 134.913 108 134.805 108Z" fill="#CCCCCC"/>
<path d="M73.2687 101.683C73.552 101.279 73.8133 100.849 74.0507 100.395C74.5043 99.5477 74.907 103.89 74.907 103.89C74.907 103.89 75.3436 105.656 75.2345 106.539C75.1253 107.422 72.6143 107.422 72.1777 107.275C71.741 107.128 69.5576 107.275 69.5576 107.275H66.2817C63.4433 105.509 66.2817 104.332 66.2817 104.332C67.1556 104.184 70.1028 100.506 70.1028 100.506L70.7578 98.887C71.1944 98.7399 71.6317 100.947 71.6317 100.947L73.2687 101.683Z" fill="#090814"/>
<path d="M81.7453 101.683C82.0285 101.279 82.2898 100.849 82.5272 100.395C82.9809 99.5477 83.3835 103.89 83.3835 103.89C83.3835 103.89 83.8202 105.656 83.711 106.539C83.6018 107.422 81.0909 107.422 80.6542 107.275C80.2176 107.128 78.0341 107.275 78.0341 107.275H74.7582C71.9198 105.509 74.7582 104.332 74.7582 104.332C75.6322 104.184 78.5793 100.506 78.5793 100.506L79.2343 98.887C79.671 98.7399 80.1082 100.947 80.1082 100.947L81.7453 101.683Z" fill="#090814"/>
</svg>
