<svg width="135" height="108" viewBox="0 0 135 108" fill="none" xmlns="http://www.w3.org/2000/svg">
<g clip-path="url(#clip0_17_265)">
<path d="M115.896 85.0267H14.5924C13.901 85.0256 13.2382 84.6852 12.7493 84.08C12.2604 83.4749 11.9854 82.6545 11.9845 81.7987V4.47984C11.9851 3.85276 12.1866 3.25157 12.5448 2.80816C12.903 2.36474 13.3887 2.11533 13.8953 2.11462H116.56C117.076 2.11533 117.57 2.36906 117.934 2.82017C118.299 3.27127 118.504 3.8829 118.504 4.52086V81.7983C118.504 82.6541 118.228 83.4745 117.74 84.0796C117.251 84.6848 116.588 85.0252 115.896 85.0263L115.896 85.0267Z" fill="#F2F2F2"/>
<path d="M112.2 81.0416H17.7884C16.4043 81.0416 15.2785 79.7365 15.2785 78.1323V10.8024C15.2785 9.61281 16.1129 8.64478 17.1384 8.64478H112.82C113.863 8.64478 114.71 9.62857 114.71 10.838V78.1323C114.711 79.7365 113.585 81.0416 112.2 81.0416Z" fill="white"/>
<path d="M118.468 4.88196H11.9475V3.23831C11.9485 2.3795 12.2246 1.55624 12.7154 0.949142C13.2062 0.342048 13.8714 0.00070318 14.5653 0H115.85C116.544 0.00070318 117.209 0.342048 117.7 0.949142C118.191 1.55624 118.467 2.3795 118.468 3.23831L118.468 4.88196Z" fill="#6C63FF"/>
<path d="M16.7049 3.2841C17.0789 3.2841 17.382 2.90884 17.382 2.44594C17.382 1.98304 17.0789 1.60779 16.7049 1.60779C16.3309 1.60779 16.0277 1.98304 16.0277 2.44594C16.0277 2.90884 16.3309 3.2841 16.7049 3.2841Z" fill="white"/>
<path d="M19.2752 3.2841C19.6492 3.2841 19.9524 2.90884 19.9524 2.44594C19.9524 1.98304 19.6492 1.60779 19.2752 1.60779C18.9013 1.60779 18.5981 1.98304 18.5981 2.44594C18.5981 2.90884 18.9013 3.2841 19.2752 3.2841Z" fill="white"/>
<path d="M21.8453 3.2841C22.2193 3.2841 22.5224 2.90884 22.5224 2.44594C22.5224 1.98304 22.2193 1.60779 21.8453 1.60779C21.4713 1.60779 21.1682 1.98304 21.1682 2.44594C21.1682 2.90884 21.4713 3.2841 21.8453 3.2841Z" fill="white"/>
<path d="M62.2016 72.3547H29.3465C28.6131 72.3537 27.9099 71.9926 27.3913 71.3507C26.8727 70.7087 26.5809 69.8383 26.5801 68.9305V19.788C26.5807 19.1091 26.7988 18.4581 27.1867 17.9779C27.5745 17.4978 28.1004 17.2278 28.649 17.2271H62.866C63.4232 17.228 63.9573 17.5023 64.3513 17.99C64.7453 18.4777 64.967 19.1388 64.9677 19.8285V68.9301C64.967 69.8379 64.6753 70.7084 64.1567 71.3504C63.6382 71.9924 62.935 72.3536 62.2016 72.3547ZM28.649 17.6178C28.1842 17.6183 27.7385 17.847 27.4097 18.2538C27.081 18.6605 26.8961 19.2121 26.8955 19.7875V68.9299C26.8963 69.734 27.1546 70.5049 27.614 71.0735C28.0734 71.642 28.6962 71.9619 29.3458 71.9628H62.2016C62.8512 71.9619 63.474 71.642 63.9333 71.0735C64.3927 70.5049 64.6511 69.734 64.6518 68.9299V19.8285C64.6513 19.2424 64.463 18.6806 64.1282 18.2662C63.7934 17.8518 63.3394 17.6187 62.866 17.618L28.649 17.6178Z" fill="#CCCCCC"/>
<path d="M31.8758 68.9301H59.6723C60.3431 68.9301 60.9864 68.6003 61.4608 68.0131C61.9351 67.426 62.2016 66.6297 62.2016 65.7994V23.8195C62.2016 23.4084 62.1361 23.0013 62.009 22.6214C61.8819 22.2416 61.6956 21.8965 61.4608 21.6058C61.2259 21.3151 60.9471 21.0845 60.6402 20.9272C60.3333 20.7698 60.0044 20.6888 59.6723 20.6888H31.8758C31.5437 20.6888 31.2148 20.7698 30.9079 20.9272C30.601 21.0845 30.3222 21.3151 30.0873 21.6058C29.8525 21.8965 29.6662 22.2416 29.5391 22.6214C29.412 23.0013 29.3465 23.4084 29.3465 23.8195V65.7994C29.3465 66.6297 29.613 67.426 30.0873 68.0131C30.5617 68.6003 31.205 68.9301 31.8758 68.9301Z" fill="#E6E6E6"/>
<path d="M53.4408 29.2539H38.1071C37.8345 29.2539 37.5731 29.1199 37.3803 28.8813C37.1876 28.6427 37.0793 28.3191 37.0793 27.9817C37.0793 27.6443 37.1876 27.3207 37.3803 27.0821C37.5731 26.8435 37.8345 26.7095 38.1071 26.7095H53.4408C53.7134 26.7095 53.9749 26.8435 54.1676 27.0821C54.3604 27.3207 54.4687 27.6443 54.4687 27.9817C54.4687 28.3191 54.3604 28.6427 54.1676 28.8813C53.9749 29.1199 53.7134 29.2539 53.4408 29.2539Z" fill="#6C63FF"/>
<path d="M53.4408 56.8429H38.1071C37.9721 56.8429 37.8385 56.81 37.7138 56.7461C37.5891 56.6822 37.4758 56.5884 37.3803 56.4703C37.2849 56.3522 37.2092 56.2119 37.1575 56.0576C37.1059 55.9032 37.0793 55.7378 37.0793 55.5707C37.0793 55.4036 37.1059 55.2382 37.1575 55.0838C37.2092 54.9295 37.2849 54.7892 37.3803 54.6711C37.4758 54.553 37.5891 54.4592 37.7138 54.3953C37.8385 54.3314 37.9721 54.2985 38.1071 54.2985H53.4408C53.7134 54.2985 53.9749 54.4325 54.1676 54.6711C54.3604 54.9097 54.4687 55.2333 54.4687 55.5707C54.4687 55.9081 54.3604 56.2317 54.1676 56.4703C53.9749 56.7089 53.7134 56.8429 53.4408 56.8429Z" fill="white"/>
<path d="M53.4408 62.9086H38.1071C37.8345 62.9086 37.5731 62.7746 37.3803 62.536C37.1876 62.2974 37.0793 61.9738 37.0793 61.6364C37.0793 61.2989 37.1876 60.9754 37.3803 60.7368C37.5731 60.4982 37.8345 60.3641 38.1071 60.3641H53.4408C53.7134 60.3641 53.9749 60.4982 54.1676 60.7368C54.3604 60.9754 54.4687 61.2989 54.4687 61.6364C54.4687 61.9738 54.3604 62.2974 54.1676 62.536C53.9749 62.7746 53.7134 62.9086 53.4408 62.9086Z" fill="white"/>
<path d="M45.8529 47.9399C49.2578 47.9399 52.018 44.5234 52.018 40.3089C52.018 36.0945 49.2578 32.678 45.8529 32.678C42.448 32.678 39.6879 36.0945 39.6879 40.3089C39.6879 44.5234 42.448 47.9399 45.8529 47.9399Z" fill="white"/>
<path d="M85.5127 33.3164L82.8196 34.0189C82.7959 34.0251 82.7736 34.038 82.7546 34.0566C82.7355 34.0751 82.7201 34.0989 82.7097 34.1259C82.6992 34.153 82.6939 34.1827 82.6942 34.2127C82.6945 34.2427 82.7003 34.2722 82.7113 34.299L82.9623 34.911L70.7831 42.5634C70.7457 42.5869 70.7174 42.6278 70.7044 42.6772C70.6914 42.7265 70.6947 42.7802 70.7137 42.8265C70.7327 42.8728 70.7657 42.9078 70.8056 42.9239C70.8454 42.9401 70.8888 42.9359 70.9262 42.9124L83.1054 35.26L83.3564 35.872C83.3673 35.8988 83.3831 35.9221 83.4025 35.9401C83.422 35.9581 83.4444 35.9703 83.4683 35.9758C83.4921 35.9813 83.5166 35.9799 83.54 35.9718C83.5633 35.9637 83.5849 35.9491 83.6029 35.929L85.6508 33.6534C85.6767 33.6247 85.6942 33.5861 85.7006 33.5438C85.707 33.5015 85.702 33.4577 85.6863 33.4193C85.6705 33.3809 85.645 33.3499 85.6136 33.3313C85.5822 33.3127 85.5467 33.3075 85.5127 33.3164Z" fill="#E6E6E6"/>
<path d="M85.5127 52.3367L82.8196 51.6342C82.7959 51.628 82.7736 51.6151 82.7546 51.5965C82.7355 51.578 82.7201 51.5542 82.7097 51.5272C82.6992 51.5001 82.6939 51.4704 82.6942 51.4404C82.6945 51.4104 82.7003 51.3809 82.7113 51.3541L82.9623 50.7421L70.7831 43.0897C70.7457 43.0662 70.7174 43.0253 70.7044 42.9759C70.6914 42.9266 70.6947 42.8729 70.7137 42.8266C70.7327 42.7803 70.7657 42.7453 70.8056 42.7292C70.8454 42.713 70.8888 42.7172 70.9262 42.7407L83.1054 50.3931L83.3564 49.7811C83.3673 49.7543 83.3831 49.731 83.4025 49.713C83.422 49.695 83.4444 49.6828 83.4683 49.6773C83.4921 49.6718 83.5166 49.6732 83.54 49.6813C83.5633 49.6894 83.5849 49.704 83.6029 49.7241L85.6508 51.9995C85.6765 52.0283 85.694 52.0668 85.7003 52.1091C85.7066 52.1514 85.7016 52.195 85.6859 52.2334C85.6702 52.2717 85.6447 52.3026 85.6134 52.3213C85.5821 52.3399 85.5467 52.3453 85.5127 52.3366V52.3367Z" fill="#E6E6E6"/>
<path d="M94.3897 37.6705C93.7019 37.6705 93.0295 37.418 92.4575 36.945C91.8856 36.472 91.4399 35.7997 91.1766 35.0131C90.9134 34.2265 90.8445 33.361 90.9787 32.5259C91.1129 31.6909 91.4442 30.9239 91.9305 30.3219C92.4169 29.7198 93.0366 29.3098 93.7112 29.1438C94.3858 28.9777 95.0851 29.0629 95.7206 29.3887C96.3561 29.7145 96.8992 30.2663 97.2814 30.9742C97.6635 31.6821 97.8675 32.5144 97.8675 33.3657C97.8675 34.5074 97.5011 35.6023 96.8489 36.4096C96.1967 37.2169 95.3121 37.6705 94.3897 37.6705ZM94.3897 29.4524C93.7644 29.4524 93.1531 29.6819 92.6332 30.1119C92.1133 30.5419 91.708 31.1531 91.4687 31.8682C91.2295 32.5832 91.1669 33.3701 91.2888 34.1292C91.4108 34.8883 91.7119 35.5856 92.1541 36.1329C92.5963 36.6802 93.1596 37.0529 93.7729 37.2039C94.3862 37.3549 95.0219 37.2774 95.5996 36.9812C96.1773 36.685 96.6711 36.1834 97.0185 35.5399C97.3659 34.8963 97.5513 34.1397 97.5513 33.3657C97.5513 32.3279 97.2182 31.3325 96.6253 30.5986C96.0324 29.8647 95.2282 29.4524 94.3897 29.4524Z" fill="#E6E6E6"/>
<path d="M94.3897 56.6502C93.7019 56.6502 93.0295 56.3977 92.4575 55.9247C91.8856 55.4517 91.4399 54.7794 91.1766 53.9928C90.9134 53.2062 90.8445 52.3407 90.9787 51.5057C91.1129 50.6706 91.4442 49.9036 91.9305 49.3016C92.4169 48.6996 93.0366 48.2896 93.7112 48.1235C94.3858 47.9574 95.0851 48.0426 95.7206 48.3685C96.3561 48.6943 96.8992 49.246 97.2814 49.9539C97.6635 50.6618 97.8675 51.4941 97.8675 52.3455C97.8675 53.4872 97.5011 54.5821 96.8489 55.3894C96.1967 56.1967 95.3121 56.6502 94.3897 56.6502ZM94.3897 48.4321C93.7644 48.4321 93.1531 48.6616 92.6332 49.0917C92.1133 49.5217 91.708 50.1328 91.4687 50.8479C91.2295 51.563 91.1669 52.3498 91.2888 53.1089C91.4108 53.8681 91.7119 54.5654 92.1541 55.1126C92.5963 55.6599 93.1596 56.0326 93.7729 56.1836C94.3862 56.3346 95.0219 56.2571 95.5996 55.961C96.1773 55.6648 96.6711 55.1632 97.0185 54.5196C97.3659 53.8761 97.5513 53.1195 97.5513 52.3455C97.5513 51.3076 97.2182 50.3122 96.6253 49.5783C96.0324 48.8444 95.2282 48.4321 94.3897 48.4321Z" fill="#E6E6E6"/>
<path d="M94.1142 35.4874C94.0138 35.4878 93.9159 35.4478 93.8354 35.3734L93.8305 35.3689L92.7809 34.375C92.7311 34.3294 92.6892 34.272 92.6576 34.2061C92.6259 34.1402 92.6051 34.0672 92.5965 33.9913C92.5879 33.9154 92.5916 33.8382 92.6073 33.764C92.6231 33.6899 92.6506 33.6204 92.6883 33.5596C92.7259 33.4987 92.773 33.4478 92.8268 33.4097C92.8805 33.3717 92.9398 33.3472 93.0013 33.3378C93.0628 33.3284 93.1251 33.3343 93.1847 33.355C93.2443 33.3757 93.3 33.411 93.3485 33.4586L94.0284 34.1042L95.6351 31.5098C95.6723 31.4497 95.7188 31.3992 95.7718 31.3613C95.8248 31.3233 95.8833 31.2987 95.944 31.2888C96.0047 31.2789 96.0664 31.2838 96.1256 31.3034C96.1847 31.323 96.2402 31.3568 96.2888 31.4029L96.2788 31.42L96.2891 31.4029C96.3871 31.4962 96.4512 31.6338 96.4674 31.7855C96.4836 31.9372 96.4504 32.0907 96.3753 32.2122L94.4856 35.2623C94.4419 35.3326 94.3857 35.3895 94.3214 35.4285C94.257 35.4676 94.1863 35.4878 94.1147 35.4876L94.1142 35.4874Z" fill="#6C63FF"/>
<path d="M92.8808 54.2129C92.8363 54.1579 92.8113 54.0832 92.8113 54.0054C92.8113 53.9276 92.8363 53.8529 92.8808 53.7979L95.5634 50.4773C95.6082 50.4239 95.6681 50.3944 95.7302 50.3952C95.7924 50.3959 95.8518 50.4267 95.8957 50.4811C95.9397 50.5355 95.9646 50.6091 95.9652 50.686C95.9658 50.7629 95.9419 50.837 95.8988 50.8924L93.2161 54.2129C93.1717 54.268 93.1113 54.2989 93.0485 54.2989C92.9856 54.2989 92.9253 54.268 92.8808 54.2129Z" fill="#E6E6E6"/>
<path d="M95.7406 54.213C95.7851 54.1579 95.8101 54.0833 95.8101 54.0054C95.8101 53.9276 95.7851 53.8529 95.7406 53.7979L93.0579 50.4779C93.0132 50.4246 92.9533 50.3951 92.8912 50.3958C92.829 50.3965 92.7696 50.4273 92.7257 50.4817C92.6817 50.5361 92.6568 50.6097 92.6562 50.6866C92.6556 50.7635 92.6795 50.8376 92.7226 50.893L95.4053 54.213C95.4497 54.268 95.5101 54.2989 95.5729 54.2989C95.6358 54.2989 95.6961 54.268 95.7406 54.213Z" fill="#E6E6E6"/>
<path d="M100.395 42.9839C100.385 42.9839 100.374 42.9829 100.364 42.9811C100.337 42.9762 100.311 42.9647 100.287 42.9472C100.263 42.9297 100.243 42.9066 100.226 42.8791L98.9338 40.7334C98.9283 40.7244 98.921 40.7173 98.9127 40.7128C98.9043 40.7083 98.8951 40.7067 98.886 40.708C98.8769 40.7094 98.8683 40.7136 98.861 40.7204C98.8536 40.7271 98.8479 40.7361 98.8442 40.7465L98.1817 42.6653C98.1644 42.7152 98.1349 42.7572 98.0973 42.7853C98.0598 42.8134 98.0161 42.8262 97.9723 42.8221C97.9286 42.8179 97.887 42.7968 97.8534 42.7619C97.8198 42.727 97.7958 42.6799 97.7849 42.6273L96.4627 36.2925C96.4523 36.2425 96.4541 36.1898 96.468 36.141C96.4818 36.0923 96.5071 36.0497 96.5406 36.0189C96.5741 35.988 96.6142 35.9701 96.6559 35.9676C96.6976 35.9651 96.739 35.978 96.7747 36.0047L101.302 39.3808C101.34 39.4089 101.369 39.4507 101.387 39.5006C101.404 39.5504 101.408 39.6057 101.399 39.6588C101.39 39.7118 101.367 39.7599 101.335 39.7964C101.302 39.8328 101.261 39.8558 101.218 39.862L99.5436 40.1022C99.5346 40.1036 99.5259 40.1078 99.5186 40.1146C99.5113 40.1213 99.5055 40.1304 99.5019 40.1407C99.4983 40.1511 99.4969 40.1625 99.498 40.1737C99.499 40.185 99.5024 40.1957 99.5079 40.2048L100.8 42.3505C100.833 42.4058 100.848 42.4752 100.839 42.5435C100.831 42.6118 100.802 42.6733 100.757 42.7147L100.521 42.933C100.484 42.9664 100.44 42.9843 100.395 42.9839Z" fill="#6C63FF"/>
<path d="M107.747 47.6499H102.056C101.636 47.6499 101.234 47.4438 100.938 47.0768C100.641 46.7099 100.475 46.2122 100.475 45.6933C100.475 45.1743 100.641 44.6766 100.938 44.3097C101.234 43.9427 101.636 43.7366 102.056 43.7366H107.747C108.166 43.7366 108.568 43.9427 108.865 44.3097C109.161 44.6766 109.328 45.1743 109.328 45.6933C109.328 46.2122 109.161 46.7099 108.865 47.0768C108.568 47.4438 108.166 47.6499 107.747 47.6499Z" fill="#6C63FF"/>
<path d="M38.7806 34.127L38.5439 33.9086C38.4993 33.8673 38.4697 33.8058 38.4617 33.7375C38.4537 33.6693 38.4678 33.5999 38.5011 33.5446L39.7932 31.3989C39.7987 31.3898 39.8021 31.3791 39.8031 31.3679C39.8042 31.3566 39.8028 31.3453 39.7992 31.3349C39.7956 31.3245 39.7898 31.3155 39.7825 31.3087C39.7752 31.3019 39.7666 31.2977 39.7575 31.2963L38.0832 31.058C38.0396 31.0518 37.9987 31.0288 37.9662 30.9924C37.9338 30.956 37.9113 30.9078 37.902 30.8548C37.8927 30.8018 37.897 30.7464 37.9144 30.6966C37.9317 30.6468 37.9613 30.6049 37.9988 30.5769L42.5262 27.2007C42.562 27.1741 42.6033 27.1612 42.645 27.1638C42.6867 27.1663 42.7268 27.1842 42.7602 27.215C42.7937 27.2459 42.8189 27.2884 42.8328 27.3371C42.8467 27.3858 42.8485 27.4386 42.8381 27.4886L41.5159 33.8233C41.505 33.876 41.481 33.923 41.4474 33.9579C41.4138 33.9929 41.3722 34.0139 41.3285 34.0181C41.2847 34.0223 41.241 34.0094 41.2035 33.9813C41.166 33.9532 41.1365 33.9112 41.1192 33.8613L40.4566 31.9425C40.453 31.9321 40.4472 31.9231 40.4399 31.9164C40.4325 31.9096 40.4239 31.9054 40.4148 31.9041C40.4058 31.9027 40.3966 31.9044 40.3882 31.9088C40.3798 31.9133 40.3725 31.9204 40.367 31.9294L39.0747 34.0751C39.0582 34.1026 39.0376 34.1257 39.0139 34.1432C38.9902 34.1607 38.9639 34.1722 38.9366 34.1771C38.9264 34.179 38.9162 34.1799 38.9059 34.18C38.8608 34.18 38.8169 34.1618 38.7807 34.1283L38.7806 34.127Z" fill="#3F3D56"/>
<path d="M29.9718 36.8882C29.9725 36.3697 30.1392 35.8727 30.4354 35.5061C30.7316 35.1395 31.1331 34.9332 31.552 34.9324H37.2434C37.6627 34.9324 38.0648 35.1385 38.3612 35.5055C38.6577 35.8724 38.8242 36.3701 38.8242 36.8891C38.8242 37.408 38.6577 37.9057 38.3612 38.2726C38.0648 38.6396 37.6627 38.8457 37.2434 38.8457H31.552C31.1328 38.8449 30.7311 38.6384 30.4349 38.2714C30.1387 37.9044 29.9721 37.407 29.9718 36.8882Z" fill="#3F3D56"/>
<path d="M39.3619 105.176H0.158012C0.116085 105.176 0.0758751 105.155 0.0462278 105.119C0.0165805 105.082 -7.62939e-05 105.032 -7.62939e-05 104.98C-7.62939e-05 104.928 0.0165805 104.879 0.0462278 104.842C0.0758751 104.805 0.116085 104.785 0.158012 104.785H39.3617C39.4036 104.785 39.4438 104.805 39.4735 104.842C39.5031 104.879 39.5198 104.928 39.5198 104.98C39.5198 105.032 39.5031 105.082 39.4735 105.119C39.4438 105.155 39.4038 105.176 39.3619 105.176Z" fill="#CCCCCC"/>
<path d="M134.842 105.176H107.02C106.978 105.176 106.938 105.155 106.908 105.119C106.878 105.082 106.862 105.032 106.862 104.98C106.862 104.928 106.878 104.879 106.908 104.842C106.938 104.805 106.978 104.785 107.02 104.785H134.842C134.884 104.785 134.924 104.805 134.954 104.842C134.983 104.879 135 104.928 135 104.98C135 105.032 134.983 105.082 134.954 105.119C134.924 105.155 134.884 105.176 134.842 105.176H134.842Z" fill="#CCCCCC"/>
<path d="M128.99 98.5167L129.619 101.632L126.851 102.567L126.599 99.2958L128.99 98.5167Z" fill="#FFB9B9"/>
<path d="M118.923 102.411V105.37L116.154 105.993L115.651 104.436L116.657 101.788L118.923 102.411Z" fill="#FFB9B9"/>
<path d="M124.459 70.1681L124.082 74.3737L124.333 82.4733C124.333 82.4733 124.333 83.2518 124.711 83.5636C124.913 83.7345 129.367 99.1399 129.367 99.1399C129.367 99.1399 128.36 100.697 126.473 100.23L126.095 98.6732C126.095 98.6732 125.592 96.6482 125.34 96.1809C125.088 95.7136 121.313 86.2119 121.313 86.2119L119.552 82.3176L119.049 87.6135C119.049 87.6135 120.055 94.3113 119.804 97.4266C119.552 100.542 119.049 103.813 119.049 103.813L115.334 103.097C115.32 102.594 115.399 98.9842 115.399 98.9842V98.5169L114.644 86.5231L113.26 70.7911L124.459 70.1681Z" fill="#090814"/>
<path d="M115.902 41.8193C117.779 41.8193 119.3 39.9364 119.3 37.6137C119.3 35.291 117.779 33.4081 115.902 33.4081C114.026 33.4081 112.505 35.291 112.505 37.6137C112.505 39.9364 114.026 41.8193 115.902 41.8193Z" fill="#FFB9B9"/>
<path d="M118.86 37.6915L120.244 41.8971L116.972 44.8567L114.958 40.4952L118.86 37.6915Z" fill="#FFB9B9"/>
<path d="M119.048 40.8842L120.306 40.1057L121.061 42.2864C121.061 42.2864 125.969 44.1556 125.592 52.7225C125.214 61.2894 124.334 64.5603 124.334 64.5603C124.334 64.5603 126.473 70.1679 125.214 70.7909C123.956 71.4139 113.26 73.7504 113.008 71.5694C112.756 69.3884 113.889 56.6163 113.889 56.6163C113.889 56.6163 113.511 47.4258 116.657 45.5571L116.028 43.8438L119.048 40.8842Z" fill="#E6E6E6"/>
<path d="M112.127 71.1025C112.127 71.1025 109.233 74.8408 110.869 75.7754C112.506 76.7101 113.512 71.5698 113.512 71.5698L112.127 71.1025Z" fill="#FFB9B9"/>
<path d="M117.699 104.515L119.011 103.909C119.011 103.909 120.442 108 119.25 108H116.149C116.149 108 114.36 107.242 113.407 107.242C112.453 107.242 110.664 104.97 111.976 103.909C113.287 102.849 114.957 103.151 114.957 103.151L115.434 101.788L116.03 103.909C116.03 103.909 116.745 105.424 117.699 104.515Z" fill="#090814"/>
<path d="M128.235 101.165C128.235 101.165 129.023 100.549 129.447 100.779C129.871 101.009 130.122 103.501 130.122 103.501C130.122 103.501 131.38 105.37 128.612 105.682C125.843 105.993 125.214 105.37 124.962 104.436C124.71 103.501 125.214 102.567 125.214 102.567L125.969 102.255C125.969 102.255 126.85 101.476 126.598 101.165C126.346 100.853 126.598 100.23 126.598 100.23C126.598 100.23 127.48 102.411 128.235 101.165Z" fill="#090814"/>
<path d="M117.065 37.5463C117.051 37.4101 117.026 37.276 116.991 37.146C116.808 36.6713 116.096 36.8103 115.969 36.309C115.944 36.2108 115.949 36.1041 115.925 36.0051C115.882 35.8849 115.809 35.7849 115.717 35.7196C115.625 35.6543 115.518 35.6272 115.413 35.6423C115.203 35.6781 114.997 35.7438 114.799 35.8378C114.301 36.0127 113.771 35.9459 113.257 35.8777C113.028 35.8682 112.803 35.7958 112.599 35.6656C112.498 35.5977 112.418 35.4911 112.37 35.362C112.323 35.2329 112.31 35.0881 112.334 34.9494C112.402 34.6913 112.631 34.5495 112.733 34.3095C112.896 33.9284 112.697 33.436 112.829 33.0372C113.041 32.3973 113.844 32.5259 114.251 32.0529C114.35 31.9389 114.422 31.7914 114.516 31.6714C114.798 31.3153 115.242 31.2464 115.643 31.2956C116.043 31.3448 116.436 31.4902 116.839 31.4815C117.221 31.4731 117.621 31.3296 117.972 31.513C118.179 31.644 118.36 31.8286 118.504 32.0542L119.406 33.2782C119.53 33.4227 119.625 33.6004 119.685 33.7977C119.739 34.0322 119.689 34.284 119.712 34.5263C119.765 35.0789 120.183 35.4962 120.239 36.0482C120.251 36.2195 120.244 36.3918 120.219 36.5609L120.093 37.7137C120.087 37.8261 120.063 37.9358 120.022 38.0365C119.985 38.1142 119.93 38.1755 119.888 38.2496C119.772 38.4585 119.782 38.7349 119.724 38.9788C119.666 39.2226 119.458 39.4637 119.276 39.3462C119.157 39.2702 119.079 38.6356 118.935 38.4712C118.734 38.242 118.629 38.2703 118.381 38.2741C117.884 38.2828 117.223 38.3354 117.065 37.5463Z" fill="#2F2E41"/>
<path d="M117.664 46.6479C117.664 46.6479 121.439 48.5171 120.306 52.7227C119.174 56.9283 116.154 69.8567 116.154 69.8567L114.392 70.947L113.888 72.6604L111.497 71.57L111.875 69.2344L112.756 66.8989L115.021 49.4535C115.021 49.4535 115.021 46.492 117.664 46.6479Z" fill="#E6E6E6"/>
<path opacity="0.1" d="M120.495 53.5792L116.594 70.09L114.958 72.1151L115.902 70.0121L120.495 53.5792Z" fill="black"/>
<path d="M12.4766 52.7645L13.2544 59.6103L16.5383 66.8839C17.4894 67.9535 16.6246 70.5207 16.6246 70.5207L15.7606 69.7724L15.5877 68.4888C15.5877 68.4888 11.7853 63.1405 10.8348 61.857C9.8843 60.5736 9.53851 53.5138 9.53851 53.5138L12.4766 52.7645Z" fill="#FBBEBE"/>
<path d="M9.6146 99.189C9.6146 99.189 9.78749 101.649 9.70097 102.291C9.61445 102.933 7.02199 102.184 7.02199 102.184C7.45414 101.114 7.7134 97.9055 7.7134 97.9055L9.6146 99.189Z" fill="#FBBEBE"/>
<path d="M22.491 99.8309C22.491 99.8309 22.7503 103.254 22.6639 103.896C22.5775 104.537 19.9849 103.789 19.9849 103.789C20.4171 102.719 20.6763 99.51 20.6763 99.51L22.491 99.8309Z" fill="#FBBEBE"/>
<path d="M17.1952 44.9578C18.9311 44.9578 20.3384 43.2159 20.3384 41.0672C20.3384 38.9185 18.9311 37.1766 17.1952 37.1766C15.4592 37.1766 14.052 38.9185 14.052 41.0672C14.052 43.2159 15.4592 44.9578 17.1952 44.9578Z" fill="#FBBEBE"/>
<path d="M17.7379 44.7439C17.2194 45.5997 17.4787 47.0972 17.4787 47.0972C17.4787 47.0972 12.2072 54.6926 11.2565 54.6926C10.3059 54.6926 10.4788 49.3443 10.4788 49.3443C10.4788 49.3443 11.8614 47.3125 12.6392 46.8841C13.417 46.4557 14.7997 41.8567 14.7997 41.8567C14.7997 41.8567 18.2564 43.8881 17.7379 44.7439Z" fill="#FBBEBE"/>
<path d="M21.2811 59.2911L24.6637 66.3245C25.2811 67.5817 24.1328 73.9454 24.1328 73.9454L23.6143 87.53L22.7501 101.218V102.716L19.8984 102.609L18.9472 87.9578L17.5646 76.9405L15.3177 85.3904L11.6019 95.7659C11.2846 97.0457 10.8947 98.2962 10.435 99.508L9.74363 101.005L7.15178 100.63L11.0832 84.2136L11.8608 73.5176C11.9472 67.5276 13.5023 64.2116 13.5023 64.2116V62.928L21.2811 59.2911Z" fill="#090814"/>
<path d="M9.44187 101.756C9.44187 101.756 9.87402 100.9 9.87402 101.221C9.87402 101.542 10.9974 102.399 10.9974 102.399C10.9974 102.399 12.1209 102.185 12.2937 103.789C12.4666 105.394 10.7382 105.715 10.3062 105.607C9.87418 105.5 8.75061 105.714 8.75061 105.714C8.00568 105.85 7.24871 105.85 6.50378 105.714C5.1211 105.5 6.33089 102.612 6.50378 102.077C6.67667 101.543 7.54082 101.971 7.54082 101.971C9.09624 102.505 9.44187 101.756 9.44187 101.756Z" fill="#090814"/>
<path d="M22.4043 103.36C22.4043 103.36 22.8365 102.505 22.8365 102.825C22.8365 103.146 23.9599 104.003 23.9599 104.003C23.9599 104.003 25.0833 103.789 25.2562 105.393C25.4291 106.998 23.7006 107.318 23.2686 107.211C22.8366 107.104 21.7131 107.318 21.7131 107.318C20.9681 107.454 20.2112 107.454 19.4662 107.318C18.0836 107.104 19.2933 104.216 19.4662 103.681C19.6391 103.147 20.5033 103.575 20.5033 103.575C22.0587 104.109 22.4043 103.36 22.4043 103.36Z" fill="#090814"/>
<path d="M16.4415 46.9901C18.6019 44.2091 20.9351 51.1617 20.9351 51.1617C20.9351 51.1617 21.7129 53.729 21.108 55.1195C20.5031 56.5101 21.7129 59.612 21.7129 59.612C18.7535 62.7303 15.8044 65.6124 13.0712 63.5698C13.4169 61.0026 12.2934 59.7191 11.5157 57.259C10.7379 54.7988 9.26883 55.3335 9.26883 55.3335C9.26883 55.3335 9.3552 52.5525 9.61446 50.3061C9.87372 48.0598 12.2071 47.2165 12.2071 47.2165C12.63 48.1572 14.281 49.7712 16.4415 46.9901Z" fill="#6C63FF"/>
<path d="M20.2442 51.4827L21.022 58.3284L24.3058 65.602C25.257 66.6716 24.3922 69.2389 24.3922 69.2389L23.5282 68.4905L23.3553 67.2069C23.3553 67.2069 19.5529 61.8586 18.6024 60.5752C17.6519 59.2917 17.3061 52.232 17.3061 52.232L20.2442 51.4827Z" fill="#FBBEBE"/>
<path d="M20.7625 52.5522L17.133 53.0871C17.133 53.0871 16.8738 47.8463 17.4219 46.5361C17.97 45.2259 19.9849 46.669 19.9849 46.669C20.5031 46.7761 20.7625 52.5522 20.7625 52.5522Z" fill="#6C63FF"/>
<path d="M20.7139 38.8149C18.3895 40.253 19.7306 44.1792 19.456 45.8267C19.0066 48.5249 12.3803 47.1538 12.3803 47.1538C11.5741 46.9743 11.0827 35.8721 15.4979 35.9695C17.7237 36.0194 19.2634 36.8941 20.7139 38.8149Z" fill="#090814"/>
<path d="M19.2972 42.2279C19.4759 42.2279 19.6209 41.941 19.6209 41.587C19.6209 41.2331 19.4759 40.9462 19.2972 40.9462C19.1184 40.9462 18.9735 41.2331 18.9735 41.587C18.9735 41.941 19.1184 42.2279 19.2972 42.2279Z" fill="#FBBEBE"/>
</g>
<defs>
<clipPath id="clip0_17_265">
<rect width="135" height="108" fill="white"/>
</clipPath>
</defs>
</svg>
